M48
; DRILL file {KiCad 6.0.2-378541a8eb~116~ubuntu20.04.1} date qua 16 nov 2022 14:33:48
; FORMAT={-:-/ absolute / metric / decimal}
; #@! TF.CreationDate,2022-11-16T14:33:48-03:00
; #@! TF.GenerationSoftware,Kicad,Pcbnew,6.0.2-378541a8eb~116~ubuntu20.04.1
; #@! TF.FileFunction,Plated,1,2,PTH
FMAT,2
METRIC
; #@! TA.AperFunction,Plated,PTH,ViaDrill
T1C0.300
; #@! TA.AperFunction,Plated,PTH,ViaDrill
T2C0.400
; #@! TA.AperFunction,Plated,PTH,ViaDrill
T3C0.500
; #@! TA.AperFunction,Plated,PTH,ComponentDrill
T4C0.700
; #@! TA.AperFunction,Plated,PTH,ComponentDrill
T5C0.750
; #@! TA.AperFunction,Plated,PTH,ComponentDrill
T6C0.800
; #@! TA.AperFunction,Plated,PTH,ComponentDrill
T7C0.900
; #@! TA.AperFunction,Plated,PTH,ComponentDrill
T8C1.000
%
G90
G05
T1
X105.71Y-63.225
X114.43Y-63.225
T2
X52.07Y-80.565
X58.72Y-56.015
X70.07Y-67.215
X70.22Y-69.315
X77.815Y-67.41
X77.815Y-70.62
X83.12Y-66.915
X85.22Y-62.915
X86.52Y-64.915
X89.92Y-95.915
X94.11Y-78.125
X97.92Y-89.315
X99.26Y-99.175
X101.8Y-101.035
X101.83Y-64.675
X103.22Y-82.515
X103.22Y-85.315
X105.64Y-97.795
X106.69Y-99.085
X108.02Y-100.815
T3
X52.3Y-87.535
X52.3Y-92.615
X52.3Y-97.695
X53.52Y-81.515
X56.62Y-81.615
X57.38Y-77.375
X57.38Y-87.535
X57.38Y-92.615
X57.38Y-97.695
X57.38Y-102.775
X57.888Y-62.643
X58.904Y-65.691
X61.444Y-65.691
X62.46Y-72.295
X62.46Y-77.375
X62.46Y-82.455
X62.46Y-87.535
X62.46Y-92.615
X62.46Y-97.695
X62.46Y-102.775
X67.54Y-92.615
X67.54Y-97.695
X67.54Y-100.235
X72.62Y-92.615
X72.62Y-100.235
X75.16Y-53.245
X75.16Y-55.785
X75.16Y-58.325
X78.97Y-53.245
X78.97Y-55.785
X78.97Y-58.325
X82.78Y-53.245
X82.78Y-55.785
X82.78Y-58.325
X84.22Y-80.615
X86.59Y-53.245
X86.59Y-55.785
X86.59Y-58.325
X86.59Y-84.995
X86.59Y-90.075
X86.62Y-98.715
X95.48Y-84.995
X98.02Y-83.725
X109.45Y-53.245
X109.45Y-55.785
X109.45Y-58.325
X111.99Y-53.245
X111.99Y-55.785
X111.99Y-58.325
X113.26Y-104.045
X114.53Y-53.245
X114.53Y-55.785
X114.53Y-58.325
X115.82Y-79.915
X117.07Y-92.615
X118.34Y-96.425
X118.34Y-100.235
X119.32Y-78.715
X119.32Y-90.015
T4
X73.71Y-95.415
X81.33Y-95.415
X89.13Y-64.675
X91.67Y-69.755
X94.21Y-67.215
X95.08Y-72.295
X96.75Y-64.675
X98.02Y-79.915
X99.29Y-69.755
X101.83Y-67.215
X102.7Y-72.295
X105.64Y-79.915
X109.22Y-64.77
X109.22Y-72.39
X109.61Y-86.215
X117.23Y-86.215
T5
X111.18Y-98.415
X112.45Y-99.685
X113.72Y-98.415
T6
X61.32Y-58.715
X61.32Y-61.215
X65.115Y-64.815
X65.115Y-72.435
X67.32Y-54.715
X67.62Y-89.415
X67.655Y-64.815
X67.655Y-72.435
X70.195Y-64.815
X70.195Y-72.435
X70.22Y-81.815
X72.32Y-54.715
X72.62Y-89.415
X72.735Y-64.815
X72.735Y-72.435
X75.22Y-81.815
X75.275Y-64.815
X75.275Y-72.435
X77.815Y-64.815
X77.815Y-72.435
X80.24Y-79.915
X80.24Y-82.455
X80.355Y-64.815
X80.355Y-72.435
X81.51Y-92.615
X82.895Y-64.815
X82.895Y-72.435
X86.92Y-67.415
X86.92Y-72.415
X87.86Y-79.915
X87.86Y-82.455
X89.13Y-92.615
X92.91Y-83.915
X100.53Y-83.915
X109.72Y-94.015
X112.0Y-65.4
X112.02Y-71.715
X114.72Y-94.015
X117.0Y-65.4
X117.02Y-71.715
T7
X89.13Y-54.915
X91.67Y-54.915
X94.21Y-54.915
X96.75Y-54.915
X99.29Y-54.915
X101.83Y-54.915
X104.37Y-54.915
X106.91Y-54.915
T8
X54.865Y-61.415
X54.865Y-63.955
X54.865Y-66.495
X54.865Y-69.035
X54.865Y-71.575
X54.865Y-74.115
X54.865Y-76.655
X65.105Y-86.105
X65.105Y-103.885
X67.51Y-60.96
X67.51Y-76.2
X67.645Y-86.105
X67.645Y-103.885
X70.05Y-60.96
X70.05Y-76.2
X70.185Y-86.105
X70.185Y-103.885
X72.59Y-60.96
X72.59Y-76.2
X72.725Y-86.105
X72.725Y-103.885
X75.13Y-60.96
X75.13Y-76.2
X75.265Y-86.105
X75.265Y-103.885
X77.67Y-60.96
X77.67Y-76.2
X77.805Y-86.105
X77.805Y-103.885
X80.21Y-60.96
X80.21Y-76.2
X80.345Y-86.105
X80.345Y-103.885
X82.75Y-60.96
X82.75Y-76.2
X82.885Y-86.105
X82.885Y-103.885
X85.29Y-60.96
X85.29Y-76.2
X86.56Y-104.115
X87.83Y-60.96
X87.83Y-76.2
X89.1Y-104.115
X90.345Y-87.585
X90.37Y-60.96
X90.37Y-76.2
X91.64Y-104.115
X92.885Y-87.585
X92.9Y-93.04
X92.91Y-60.96
X92.91Y-76.2
X94.18Y-104.115
X95.425Y-87.585
X95.44Y-93.04
X95.45Y-60.96
X95.45Y-76.2
X96.72Y-104.115
X97.965Y-87.585
X97.98Y-93.04
X97.99Y-60.96
X97.99Y-76.2
X99.26Y-104.115
X100.505Y-87.585
X100.52Y-93.04
X100.53Y-60.96
X100.53Y-76.2
X101.8Y-104.115
X103.045Y-87.585
X103.07Y-60.96
X103.07Y-76.2
X104.34Y-104.115
X105.61Y-60.96
X105.61Y-76.2
X106.88Y-104.115
X108.15Y-60.96
X108.15Y-76.2
X109.42Y-82.48
X109.42Y-104.115
X110.69Y-60.96
X110.69Y-76.2
X111.96Y-82.48
X113.23Y-60.96
X113.23Y-76.2
X114.5Y-82.48
X115.77Y-60.96
X115.77Y-76.2
X117.04Y-82.48
T0
M30
