%TF.GenerationSoftware,KiCad,Pcbnew,6.0.2-378541a8eb~116~ubuntu20.04.1*%
%TF.CreationDate,2022-11-16T14:33:25-03:00*%
%TF.ProjectId,lora-bluepill-sch,6c6f7261-2d62-46c7-9565-70696c6c2d73,rev?*%
%TF.SameCoordinates,Original*%
%TF.FileFunction,Legend,Top*%
%TF.FilePolarity,Positive*%
%FSLAX46Y46*%
G04 Gerber Fmt 4.6, Leading zero omitted, Abs format (unit mm)*
G04 Created by KiCad (PCBNEW 6.0.2-378541a8eb~116~ubuntu20.04.1) date 2022-11-16 14:33:25*
%MOMM*%
%LPD*%
G01*
G04 APERTURE LIST*
%ADD10C,0.100000*%
%ADD11C,0.150000*%
%ADD12C,0.300000*%
%ADD13C,0.400000*%
%ADD14C,0.120000*%
G04 APERTURE END LIST*
D10*
D11*
X177002200Y-166007200D02*
X177002200Y-198007200D01*
X285002200Y-198007200D01*
X285002200Y-166007200D01*
X177002200Y-166007200D01*
D10*
D11*
X10000000Y-10000000D02*
X10000000Y-200007200D01*
X287002200Y-200007200D01*
X287002200Y-10000000D01*
X10000000Y-10000000D01*
D10*
D11*
X12000000Y-12000000D02*
X12000000Y-198007200D01*
X285002200Y-198007200D01*
X285002200Y-12000000D01*
X12000000Y-12000000D01*
D10*
D11*
X60000000Y-12000000D02*
X60000000Y-10000000D01*
D10*
D11*
X110000000Y-12000000D02*
X110000000Y-10000000D01*
D10*
D11*
X160000000Y-12000000D02*
X160000000Y-10000000D01*
D10*
D11*
X210000000Y-12000000D02*
X210000000Y-10000000D01*
D10*
D11*
X260000000Y-12000000D02*
X260000000Y-10000000D01*
D10*
D11*
X36065476Y-11588095D02*
X35322619Y-11588095D01*
X35694047Y-11588095D02*
X35694047Y-10288095D01*
X35570238Y-10473809D01*
X35446428Y-10597619D01*
X35322619Y-10659523D01*
D10*
D11*
X85322619Y-10411904D02*
X85384523Y-10350000D01*
X85508333Y-10288095D01*
X85817857Y-10288095D01*
X85941666Y-10350000D01*
X86003571Y-10411904D01*
X86065476Y-10535714D01*
X86065476Y-10659523D01*
X86003571Y-10845238D01*
X85260714Y-11588095D01*
X86065476Y-11588095D01*
D10*
D11*
X135260714Y-10288095D02*
X136065476Y-10288095D01*
X135632142Y-10783333D01*
X135817857Y-10783333D01*
X135941666Y-10845238D01*
X136003571Y-10907142D01*
X136065476Y-11030952D01*
X136065476Y-11340476D01*
X136003571Y-11464285D01*
X135941666Y-11526190D01*
X135817857Y-11588095D01*
X135446428Y-11588095D01*
X135322619Y-11526190D01*
X135260714Y-11464285D01*
D10*
D11*
X185941666Y-10721428D02*
X185941666Y-11588095D01*
X185632142Y-10226190D02*
X185322619Y-11154761D01*
X186127380Y-11154761D01*
D10*
D11*
X236003571Y-10288095D02*
X235384523Y-10288095D01*
X235322619Y-10907142D01*
X235384523Y-10845238D01*
X235508333Y-10783333D01*
X235817857Y-10783333D01*
X235941666Y-10845238D01*
X236003571Y-10907142D01*
X236065476Y-11030952D01*
X236065476Y-11340476D01*
X236003571Y-11464285D01*
X235941666Y-11526190D01*
X235817857Y-11588095D01*
X235508333Y-11588095D01*
X235384523Y-11526190D01*
X235322619Y-11464285D01*
D10*
D11*
X285941666Y-10288095D02*
X285694047Y-10288095D01*
X285570238Y-10350000D01*
X285508333Y-10411904D01*
X285384523Y-10597619D01*
X285322619Y-10845238D01*
X285322619Y-11340476D01*
X285384523Y-11464285D01*
X285446428Y-11526190D01*
X285570238Y-11588095D01*
X285817857Y-11588095D01*
X285941666Y-11526190D01*
X286003571Y-11464285D01*
X286065476Y-11340476D01*
X286065476Y-11030952D01*
X286003571Y-10907142D01*
X285941666Y-10845238D01*
X285817857Y-10783333D01*
X285570238Y-10783333D01*
X285446428Y-10845238D01*
X285384523Y-10907142D01*
X285322619Y-11030952D01*
D10*
D11*
X60000000Y-198007200D02*
X60000000Y-200007200D01*
D10*
D11*
X110000000Y-198007200D02*
X110000000Y-200007200D01*
D10*
D11*
X160000000Y-198007200D02*
X160000000Y-200007200D01*
D10*
D11*
X210000000Y-198007200D02*
X210000000Y-200007200D01*
D10*
D11*
X260000000Y-198007200D02*
X260000000Y-200007200D01*
D10*
D11*
X36065476Y-199595295D02*
X35322619Y-199595295D01*
X35694047Y-199595295D02*
X35694047Y-198295295D01*
X35570238Y-198481009D01*
X35446428Y-198604819D01*
X35322619Y-198666723D01*
D10*
D11*
X85322619Y-198419104D02*
X85384523Y-198357200D01*
X85508333Y-198295295D01*
X85817857Y-198295295D01*
X85941666Y-198357200D01*
X86003571Y-198419104D01*
X86065476Y-198542914D01*
X86065476Y-198666723D01*
X86003571Y-198852438D01*
X85260714Y-199595295D01*
X86065476Y-199595295D01*
D10*
D11*
X135260714Y-198295295D02*
X136065476Y-198295295D01*
X135632142Y-198790533D01*
X135817857Y-198790533D01*
X135941666Y-198852438D01*
X136003571Y-198914342D01*
X136065476Y-199038152D01*
X136065476Y-199347676D01*
X136003571Y-199471485D01*
X135941666Y-199533390D01*
X135817857Y-199595295D01*
X135446428Y-199595295D01*
X135322619Y-199533390D01*
X135260714Y-199471485D01*
D10*
D11*
X185941666Y-198728628D02*
X185941666Y-199595295D01*
X185632142Y-198233390D02*
X185322619Y-199161961D01*
X186127380Y-199161961D01*
D10*
D11*
X236003571Y-198295295D02*
X235384523Y-198295295D01*
X235322619Y-198914342D01*
X235384523Y-198852438D01*
X235508333Y-198790533D01*
X235817857Y-198790533D01*
X235941666Y-198852438D01*
X236003571Y-198914342D01*
X236065476Y-199038152D01*
X236065476Y-199347676D01*
X236003571Y-199471485D01*
X235941666Y-199533390D01*
X235817857Y-199595295D01*
X235508333Y-199595295D01*
X235384523Y-199533390D01*
X235322619Y-199471485D01*
D10*
D11*
X285941666Y-198295295D02*
X285694047Y-198295295D01*
X285570238Y-198357200D01*
X285508333Y-198419104D01*
X285384523Y-198604819D01*
X285322619Y-198852438D01*
X285322619Y-199347676D01*
X285384523Y-199471485D01*
X285446428Y-199533390D01*
X285570238Y-199595295D01*
X285817857Y-199595295D01*
X285941666Y-199533390D01*
X286003571Y-199471485D01*
X286065476Y-199347676D01*
X286065476Y-199038152D01*
X286003571Y-198914342D01*
X285941666Y-198852438D01*
X285817857Y-198790533D01*
X285570238Y-198790533D01*
X285446428Y-198852438D01*
X285384523Y-198914342D01*
X285322619Y-199038152D01*
D10*
D11*
X10000000Y-60000000D02*
X12000000Y-60000000D01*
D10*
D11*
X10000000Y-110000000D02*
X12000000Y-110000000D01*
D10*
D11*
X10000000Y-160000000D02*
X12000000Y-160000000D01*
D10*
D11*
X10690476Y-35216666D02*
X11309523Y-35216666D01*
X10566666Y-35588095D02*
X11000000Y-34288095D01*
X11433333Y-35588095D01*
D10*
D11*
X11092857Y-84907142D02*
X11278571Y-84969047D01*
X11340476Y-85030952D01*
X11402380Y-85154761D01*
X11402380Y-85340476D01*
X11340476Y-85464285D01*
X11278571Y-85526190D01*
X11154761Y-85588095D01*
X10659523Y-85588095D01*
X10659523Y-84288095D01*
X11092857Y-84288095D01*
X11216666Y-84350000D01*
X11278571Y-84411904D01*
X11340476Y-84535714D01*
X11340476Y-84659523D01*
X11278571Y-84783333D01*
X11216666Y-84845238D01*
X11092857Y-84907142D01*
X10659523Y-84907142D01*
D10*
D11*
X11402380Y-135464285D02*
X11340476Y-135526190D01*
X11154761Y-135588095D01*
X11030952Y-135588095D01*
X10845238Y-135526190D01*
X10721428Y-135402380D01*
X10659523Y-135278571D01*
X10597619Y-135030952D01*
X10597619Y-134845238D01*
X10659523Y-134597619D01*
X10721428Y-134473809D01*
X10845238Y-134350000D01*
X11030952Y-134288095D01*
X11154761Y-134288095D01*
X11340476Y-134350000D01*
X11402380Y-134411904D01*
D10*
D11*
X10659523Y-185588095D02*
X10659523Y-184288095D01*
X10969047Y-184288095D01*
X11154761Y-184350000D01*
X11278571Y-184473809D01*
X11340476Y-184597619D01*
X11402380Y-184845238D01*
X11402380Y-185030952D01*
X11340476Y-185278571D01*
X11278571Y-185402380D01*
X11154761Y-185526190D01*
X10969047Y-185588095D01*
X10659523Y-185588095D01*
D10*
D11*
X287002200Y-60000000D02*
X285002200Y-60000000D01*
D10*
D11*
X287002200Y-110000000D02*
X285002200Y-110000000D01*
D10*
D11*
X287002200Y-160000000D02*
X285002200Y-160000000D01*
D10*
D11*
X285692676Y-35216666D02*
X286311723Y-35216666D01*
X285568866Y-35588095D02*
X286002200Y-34288095D01*
X286435533Y-35588095D01*
D10*
D11*
X286095057Y-84907142D02*
X286280771Y-84969047D01*
X286342676Y-85030952D01*
X286404580Y-85154761D01*
X286404580Y-85340476D01*
X286342676Y-85464285D01*
X286280771Y-85526190D01*
X286156961Y-85588095D01*
X285661723Y-85588095D01*
X285661723Y-84288095D01*
X286095057Y-84288095D01*
X286218866Y-84350000D01*
X286280771Y-84411904D01*
X286342676Y-84535714D01*
X286342676Y-84659523D01*
X286280771Y-84783333D01*
X286218866Y-84845238D01*
X286095057Y-84907142D01*
X285661723Y-84907142D01*
D10*
D11*
X286404580Y-135464285D02*
X286342676Y-135526190D01*
X286156961Y-135588095D01*
X286033152Y-135588095D01*
X285847438Y-135526190D01*
X285723628Y-135402380D01*
X285661723Y-135278571D01*
X285599819Y-135030952D01*
X285599819Y-134845238D01*
X285661723Y-134597619D01*
X285723628Y-134473809D01*
X285847438Y-134350000D01*
X286033152Y-134288095D01*
X286156961Y-134288095D01*
X286342676Y-134350000D01*
X286404580Y-134411904D01*
D10*
D11*
X285661723Y-185588095D02*
X285661723Y-184288095D01*
X285971247Y-184288095D01*
X286156961Y-184350000D01*
X286280771Y-184473809D01*
X286342676Y-184597619D01*
X286404580Y-184845238D01*
X286404580Y-185030952D01*
X286342676Y-185278571D01*
X286280771Y-185402380D01*
X286156961Y-185526190D01*
X285971247Y-185588095D01*
X285661723Y-185588095D01*
D10*
D11*
X200434342Y-193785771D02*
X200434342Y-192285771D01*
X200791485Y-192285771D01*
X201005771Y-192357200D01*
X201148628Y-192500057D01*
X201220057Y-192642914D01*
X201291485Y-192928628D01*
X201291485Y-193142914D01*
X201220057Y-193428628D01*
X201148628Y-193571485D01*
X201005771Y-193714342D01*
X200791485Y-193785771D01*
X200434342Y-193785771D01*
X202577200Y-193785771D02*
X202577200Y-193000057D01*
X202505771Y-192857200D01*
X202362914Y-192785771D01*
X202077200Y-192785771D01*
X201934342Y-192857200D01*
X202577200Y-193714342D02*
X202434342Y-193785771D01*
X202077200Y-193785771D01*
X201934342Y-193714342D01*
X201862914Y-193571485D01*
X201862914Y-193428628D01*
X201934342Y-193285771D01*
X202077200Y-193214342D01*
X202434342Y-193214342D01*
X202577200Y-193142914D01*
X203077200Y-192785771D02*
X203648628Y-192785771D01*
X203291485Y-192285771D02*
X203291485Y-193571485D01*
X203362914Y-193714342D01*
X203505771Y-193785771D01*
X203648628Y-193785771D01*
X204720057Y-193714342D02*
X204577200Y-193785771D01*
X204291485Y-193785771D01*
X204148628Y-193714342D01*
X204077200Y-193571485D01*
X204077200Y-193000057D01*
X204148628Y-192857200D01*
X204291485Y-192785771D01*
X204577200Y-192785771D01*
X204720057Y-192857200D01*
X204791485Y-193000057D01*
X204791485Y-193142914D01*
X204077200Y-193285771D01*
X205434342Y-193642914D02*
X205505771Y-193714342D01*
X205434342Y-193785771D01*
X205362914Y-193714342D01*
X205434342Y-193642914D01*
X205434342Y-193785771D01*
X205434342Y-192857200D02*
X205505771Y-192928628D01*
X205434342Y-193000057D01*
X205362914Y-192928628D01*
X205434342Y-192857200D01*
X205434342Y-193000057D01*
D10*
D11*
X177002200Y-194507200D02*
X285002200Y-194507200D01*
D10*
D11*
X178434342Y-196585771D02*
X178434342Y-195085771D01*
X179291485Y-196585771D02*
X178648628Y-195728628D01*
X179291485Y-195085771D02*
X178434342Y-195942914D01*
X179934342Y-196585771D02*
X179934342Y-195585771D01*
X179934342Y-195085771D02*
X179862914Y-195157200D01*
X179934342Y-195228628D01*
X180005771Y-195157200D01*
X179934342Y-195085771D01*
X179934342Y-195228628D01*
X181505771Y-196442914D02*
X181434342Y-196514342D01*
X181220057Y-196585771D01*
X181077200Y-196585771D01*
X180862914Y-196514342D01*
X180720057Y-196371485D01*
X180648628Y-196228628D01*
X180577200Y-195942914D01*
X180577200Y-195728628D01*
X180648628Y-195442914D01*
X180720057Y-195300057D01*
X180862914Y-195157200D01*
X181077200Y-195085771D01*
X181220057Y-195085771D01*
X181434342Y-195157200D01*
X181505771Y-195228628D01*
X182791485Y-196585771D02*
X182791485Y-195800057D01*
X182720057Y-195657200D01*
X182577200Y-195585771D01*
X182291485Y-195585771D01*
X182148628Y-195657200D01*
X182791485Y-196514342D02*
X182648628Y-196585771D01*
X182291485Y-196585771D01*
X182148628Y-196514342D01*
X182077200Y-196371485D01*
X182077200Y-196228628D01*
X182148628Y-196085771D01*
X182291485Y-196014342D01*
X182648628Y-196014342D01*
X182791485Y-195942914D01*
X184148628Y-196585771D02*
X184148628Y-195085771D01*
X184148628Y-196514342D02*
X184005771Y-196585771D01*
X183720057Y-196585771D01*
X183577200Y-196514342D01*
X183505771Y-196442914D01*
X183434342Y-196300057D01*
X183434342Y-195871485D01*
X183505771Y-195728628D01*
X183577200Y-195657200D01*
X183720057Y-195585771D01*
X184005771Y-195585771D01*
X184148628Y-195657200D01*
X186005771Y-195800057D02*
X186505771Y-195800057D01*
X186720057Y-196585771D02*
X186005771Y-196585771D01*
X186005771Y-195085771D01*
X186720057Y-195085771D01*
X187362914Y-196442914D02*
X187434342Y-196514342D01*
X187362914Y-196585771D01*
X187291485Y-196514342D01*
X187362914Y-196442914D01*
X187362914Y-196585771D01*
X188077200Y-196585771D02*
X188077200Y-195085771D01*
X188434342Y-195085771D01*
X188648628Y-195157200D01*
X188791485Y-195300057D01*
X188862914Y-195442914D01*
X188934342Y-195728628D01*
X188934342Y-195942914D01*
X188862914Y-196228628D01*
X188791485Y-196371485D01*
X188648628Y-196514342D01*
X188434342Y-196585771D01*
X188077200Y-196585771D01*
X189577200Y-196442914D02*
X189648628Y-196514342D01*
X189577200Y-196585771D01*
X189505771Y-196514342D01*
X189577200Y-196442914D01*
X189577200Y-196585771D01*
X190220057Y-196157200D02*
X190934342Y-196157200D01*
X190077200Y-196585771D02*
X190577200Y-195085771D01*
X191077200Y-196585771D01*
X191577200Y-196442914D02*
X191648628Y-196514342D01*
X191577200Y-196585771D01*
X191505771Y-196514342D01*
X191577200Y-196442914D01*
X191577200Y-196585771D01*
X194577200Y-196585771D02*
X194577200Y-195085771D01*
X194720057Y-196014342D02*
X195148628Y-196585771D01*
X195148628Y-195585771D02*
X194577200Y-196157200D01*
X195791485Y-196585771D02*
X195791485Y-195585771D01*
X195791485Y-195085771D02*
X195720057Y-195157200D01*
X195791485Y-195228628D01*
X195862914Y-195157200D01*
X195791485Y-195085771D01*
X195791485Y-195228628D01*
X197148628Y-196514342D02*
X197005771Y-196585771D01*
X196720057Y-196585771D01*
X196577200Y-196514342D01*
X196505771Y-196442914D01*
X196434342Y-196300057D01*
X196434342Y-195871485D01*
X196505771Y-195728628D01*
X196577200Y-195657200D01*
X196720057Y-195585771D01*
X197005771Y-195585771D01*
X197148628Y-195657200D01*
X198434342Y-196585771D02*
X198434342Y-195800057D01*
X198362914Y-195657200D01*
X198220057Y-195585771D01*
X197934342Y-195585771D01*
X197791485Y-195657200D01*
X198434342Y-196514342D02*
X198291485Y-196585771D01*
X197934342Y-196585771D01*
X197791485Y-196514342D01*
X197720057Y-196371485D01*
X197720057Y-196228628D01*
X197791485Y-196085771D01*
X197934342Y-196014342D01*
X198291485Y-196014342D01*
X198434342Y-195942914D01*
X199791485Y-196585771D02*
X199791485Y-195085771D01*
X199791485Y-196514342D02*
X199648628Y-196585771D01*
X199362914Y-196585771D01*
X199220057Y-196514342D01*
X199148628Y-196442914D01*
X199077200Y-196300057D01*
X199077200Y-195871485D01*
X199148628Y-195728628D01*
X199220057Y-195657200D01*
X199362914Y-195585771D01*
X199648628Y-195585771D01*
X199791485Y-195657200D01*
X202291485Y-195085771D02*
X202005771Y-195085771D01*
X201862914Y-195157200D01*
X201791485Y-195228628D01*
X201648628Y-195442914D01*
X201577200Y-195728628D01*
X201577200Y-196300057D01*
X201648628Y-196442914D01*
X201720057Y-196514342D01*
X201862914Y-196585771D01*
X202148628Y-196585771D01*
X202291485Y-196514342D01*
X202362914Y-196442914D01*
X202434342Y-196300057D01*
X202434342Y-195942914D01*
X202362914Y-195800057D01*
X202291485Y-195728628D01*
X202148628Y-195657200D01*
X201862914Y-195657200D01*
X201720057Y-195728628D01*
X201648628Y-195800057D01*
X201577200Y-195942914D01*
X203077200Y-196442914D02*
X203148628Y-196514342D01*
X203077200Y-196585771D01*
X203005771Y-196514342D01*
X203077200Y-196442914D01*
X203077200Y-196585771D01*
X204077200Y-195085771D02*
X204220057Y-195085771D01*
X204362914Y-195157200D01*
X204434342Y-195228628D01*
X204505771Y-195371485D01*
X204577200Y-195657200D01*
X204577200Y-196014342D01*
X204505771Y-196300057D01*
X204434342Y-196442914D01*
X204362914Y-196514342D01*
X204220057Y-196585771D01*
X204077200Y-196585771D01*
X203934342Y-196514342D01*
X203862914Y-196442914D01*
X203791485Y-196300057D01*
X203720057Y-196014342D01*
X203720057Y-195657200D01*
X203791485Y-195371485D01*
X203862914Y-195228628D01*
X203934342Y-195157200D01*
X204077200Y-195085771D01*
X205220057Y-196442914D02*
X205291485Y-196514342D01*
X205220057Y-196585771D01*
X205148628Y-196514342D01*
X205220057Y-196442914D01*
X205220057Y-196585771D01*
X205862914Y-195228628D02*
X205934342Y-195157200D01*
X206077200Y-195085771D01*
X206434342Y-195085771D01*
X206577200Y-195157200D01*
X206648628Y-195228628D01*
X206720057Y-195371485D01*
X206720057Y-195514342D01*
X206648628Y-195728628D01*
X205791485Y-196585771D01*
X206720057Y-196585771D01*
X207362914Y-196014342D02*
X208505771Y-196014342D01*
X209077200Y-195085771D02*
X210005771Y-195085771D01*
X209505771Y-195657200D01*
X209720057Y-195657200D01*
X209862914Y-195728628D01*
X209934342Y-195800057D01*
X210005771Y-195942914D01*
X210005771Y-196300057D01*
X209934342Y-196442914D01*
X209862914Y-196514342D01*
X209720057Y-196585771D01*
X209291485Y-196585771D01*
X209148628Y-196514342D01*
X209077200Y-196442914D01*
X210505771Y-195085771D02*
X211505771Y-195085771D01*
X210862914Y-196585771D01*
X212291485Y-195728628D02*
X212148628Y-195657200D01*
X212077200Y-195585771D01*
X212005771Y-195442914D01*
X212005771Y-195371485D01*
X212077200Y-195228628D01*
X212148628Y-195157200D01*
X212291485Y-195085771D01*
X212577200Y-195085771D01*
X212720057Y-195157200D01*
X212791485Y-195228628D01*
X212862914Y-195371485D01*
X212862914Y-195442914D01*
X212791485Y-195585771D01*
X212720057Y-195657200D01*
X212577200Y-195728628D01*
X212291485Y-195728628D01*
X212148628Y-195800057D01*
X212077200Y-195871485D01*
X212005771Y-196014342D01*
X212005771Y-196300057D01*
X212077200Y-196442914D01*
X212148628Y-196514342D01*
X212291485Y-196585771D01*
X212577200Y-196585771D01*
X212720057Y-196514342D01*
X212791485Y-196442914D01*
X212862914Y-196300057D01*
X212862914Y-196014342D01*
X212791485Y-195871485D01*
X212720057Y-195800057D01*
X212577200Y-195728628D01*
X214220057Y-195085771D02*
X213505771Y-195085771D01*
X213434342Y-195800057D01*
X213505771Y-195728628D01*
X213648628Y-195657200D01*
X214005771Y-195657200D01*
X214148628Y-195728628D01*
X214220057Y-195800057D01*
X214291485Y-195942914D01*
X214291485Y-196300057D01*
X214220057Y-196442914D01*
X214148628Y-196514342D01*
X214005771Y-196585771D01*
X213648628Y-196585771D01*
X213505771Y-196514342D01*
X213434342Y-196442914D01*
X215577200Y-195585771D02*
X215577200Y-196585771D01*
X215220057Y-195014342D02*
X214862914Y-196085771D01*
X215791485Y-196085771D01*
X217148628Y-196585771D02*
X216291485Y-196585771D01*
X216720057Y-196585771D02*
X216720057Y-195085771D01*
X216577200Y-195300057D01*
X216434342Y-195442914D01*
X216291485Y-195514342D01*
X218434342Y-196585771D02*
X218434342Y-195800057D01*
X218362914Y-195657200D01*
X218220057Y-195585771D01*
X217934342Y-195585771D01*
X217791485Y-195657200D01*
X218434342Y-196514342D02*
X218291485Y-196585771D01*
X217934342Y-196585771D01*
X217791485Y-196514342D01*
X217720057Y-196371485D01*
X217720057Y-196228628D01*
X217791485Y-196085771D01*
X217934342Y-196014342D01*
X218291485Y-196014342D01*
X218434342Y-195942914D01*
X219362914Y-195728628D02*
X219220057Y-195657200D01*
X219148628Y-195585771D01*
X219077200Y-195442914D01*
X219077200Y-195371485D01*
X219148628Y-195228628D01*
X219220057Y-195157200D01*
X219362914Y-195085771D01*
X219648628Y-195085771D01*
X219791485Y-195157200D01*
X219862914Y-195228628D01*
X219934342Y-195371485D01*
X219934342Y-195442914D01*
X219862914Y-195585771D01*
X219791485Y-195657200D01*
X219648628Y-195728628D01*
X219362914Y-195728628D01*
X219220057Y-195800057D01*
X219148628Y-195871485D01*
X219077200Y-196014342D01*
X219077200Y-196300057D01*
X219148628Y-196442914D01*
X219220057Y-196514342D01*
X219362914Y-196585771D01*
X219648628Y-196585771D01*
X219791485Y-196514342D01*
X219862914Y-196442914D01*
X219934342Y-196300057D01*
X219934342Y-196014342D01*
X219862914Y-195871485D01*
X219791485Y-195800057D01*
X219648628Y-195728628D01*
X221148628Y-196514342D02*
X221005771Y-196585771D01*
X220720057Y-196585771D01*
X220577200Y-196514342D01*
X220505771Y-196371485D01*
X220505771Y-195800057D01*
X220577200Y-195657200D01*
X220720057Y-195585771D01*
X221005771Y-195585771D01*
X221148628Y-195657200D01*
X221220057Y-195800057D01*
X221220057Y-195942914D01*
X220505771Y-196085771D01*
X221862914Y-196585771D02*
X221862914Y-195085771D01*
X221862914Y-195657200D02*
X222005771Y-195585771D01*
X222291485Y-195585771D01*
X222434342Y-195657200D01*
X222505771Y-195728628D01*
X222577200Y-195871485D01*
X222577200Y-196300057D01*
X222505771Y-196442914D01*
X222434342Y-196514342D01*
X222291485Y-196585771D01*
X222005771Y-196585771D01*
X221862914Y-196514342D01*
X223005771Y-196014342D02*
X223077200Y-195942914D01*
X223220057Y-195871485D01*
X223505771Y-196014342D01*
X223648628Y-195942914D01*
X223720057Y-195871485D01*
X225077200Y-196585771D02*
X224220057Y-196585771D01*
X224648628Y-196585771D02*
X224648628Y-195085771D01*
X224505771Y-195300057D01*
X224362914Y-195442914D01*
X224220057Y-195514342D01*
X226505771Y-196585771D02*
X225648628Y-196585771D01*
X226077200Y-196585771D02*
X226077200Y-195085771D01*
X225934342Y-195300057D01*
X225791485Y-195442914D01*
X225648628Y-195514342D01*
X227791485Y-195085771D02*
X227505771Y-195085771D01*
X227362914Y-195157200D01*
X227291485Y-195228628D01*
X227148628Y-195442914D01*
X227077199Y-195728628D01*
X227077199Y-196300057D01*
X227148628Y-196442914D01*
X227220057Y-196514342D01*
X227362914Y-196585771D01*
X227648628Y-196585771D01*
X227791485Y-196514342D01*
X227862914Y-196442914D01*
X227934342Y-196300057D01*
X227934342Y-195942914D01*
X227862914Y-195800057D01*
X227791485Y-195728628D01*
X227648628Y-195657200D01*
X227362914Y-195657200D01*
X227220057Y-195728628D01*
X227148628Y-195800057D01*
X227077199Y-195942914D01*
X228362914Y-196014342D02*
X228434342Y-195942914D01*
X228577199Y-195871485D01*
X228862914Y-196014342D01*
X229005771Y-195942914D01*
X229077199Y-195871485D01*
X230291485Y-195585771D02*
X230291485Y-196585771D01*
X229648628Y-195585771D02*
X229648628Y-196371485D01*
X229720057Y-196514342D01*
X229862914Y-196585771D01*
X230077199Y-196585771D01*
X230220057Y-196514342D01*
X230291485Y-196442914D01*
X231005771Y-196585771D02*
X231005771Y-195085771D01*
X231005771Y-195657200D02*
X231148628Y-195585771D01*
X231434342Y-195585771D01*
X231577199Y-195657200D01*
X231648628Y-195728628D01*
X231720057Y-195871485D01*
X231720057Y-196300057D01*
X231648628Y-196442914D01*
X231577199Y-196514342D01*
X231434342Y-196585771D01*
X231148628Y-196585771D01*
X231005771Y-196514342D01*
X233005771Y-195585771D02*
X233005771Y-196585771D01*
X232362914Y-195585771D02*
X232362914Y-196371485D01*
X232434342Y-196514342D01*
X232577200Y-196585771D01*
X232791485Y-196585771D01*
X232934342Y-196514342D01*
X233005771Y-196442914D01*
X233720057Y-195585771D02*
X233720057Y-196585771D01*
X233720057Y-195728628D02*
X233791485Y-195657200D01*
X233934342Y-195585771D01*
X234148628Y-195585771D01*
X234291485Y-195657200D01*
X234362914Y-195800057D01*
X234362914Y-196585771D01*
X234862914Y-195585771D02*
X235434342Y-195585771D01*
X235077200Y-195085771D02*
X235077200Y-196371485D01*
X235148628Y-196514342D01*
X235291485Y-196585771D01*
X235434342Y-196585771D01*
X236577200Y-195585771D02*
X236577200Y-196585771D01*
X235934342Y-195585771D02*
X235934342Y-196371485D01*
X236005771Y-196514342D01*
X236148628Y-196585771D01*
X236362914Y-196585771D01*
X236505771Y-196514342D01*
X236577200Y-196442914D01*
X237220057Y-195228628D02*
X237291485Y-195157200D01*
X237434342Y-195085771D01*
X237791485Y-195085771D01*
X237934342Y-195157200D01*
X238005771Y-195228628D01*
X238077200Y-195371485D01*
X238077200Y-195514342D01*
X238005771Y-195728628D01*
X237148628Y-196585771D01*
X238077200Y-196585771D01*
X239005771Y-195085771D02*
X239148628Y-195085771D01*
X239291485Y-195157200D01*
X239362914Y-195228628D01*
X239434342Y-195371485D01*
X239505771Y-195657200D01*
X239505771Y-196014342D01*
X239434342Y-196300057D01*
X239362914Y-196442914D01*
X239291485Y-196514342D01*
X239148628Y-196585771D01*
X239005771Y-196585771D01*
X238862914Y-196514342D01*
X238791485Y-196442914D01*
X238720057Y-196300057D01*
X238648628Y-196014342D01*
X238648628Y-195657200D01*
X238720057Y-195371485D01*
X238791485Y-195228628D01*
X238862914Y-195157200D01*
X239005771Y-195085771D01*
X240148628Y-196442914D02*
X240220057Y-196514342D01*
X240148628Y-196585771D01*
X240077199Y-196514342D01*
X240148628Y-196442914D01*
X240148628Y-196585771D01*
X241148628Y-195085771D02*
X241291485Y-195085771D01*
X241434342Y-195157200D01*
X241505771Y-195228628D01*
X241577200Y-195371485D01*
X241648628Y-195657200D01*
X241648628Y-196014342D01*
X241577200Y-196300057D01*
X241505771Y-196442914D01*
X241434342Y-196514342D01*
X241291485Y-196585771D01*
X241148628Y-196585771D01*
X241005771Y-196514342D01*
X240934342Y-196442914D01*
X240862914Y-196300057D01*
X240791485Y-196014342D01*
X240791485Y-195657200D01*
X240862914Y-195371485D01*
X240934342Y-195228628D01*
X241005771Y-195157200D01*
X241148628Y-195085771D01*
X242934342Y-195585771D02*
X242934342Y-196585771D01*
X242577199Y-195014342D02*
X242220057Y-196085771D01*
X243148628Y-196085771D01*
X243720057Y-196442914D02*
X243791485Y-196514342D01*
X243720057Y-196585771D01*
X243648628Y-196514342D01*
X243720057Y-196442914D01*
X243720057Y-196585771D01*
X245220057Y-196585771D02*
X244362914Y-196585771D01*
X244791485Y-196585771D02*
X244791485Y-195085771D01*
X244648628Y-195300057D01*
X244505771Y-195442914D01*
X244362914Y-195514342D01*
D10*
D11*
X177002200Y-191507200D02*
X285002200Y-191507200D01*
D10*
D12*
X264411485Y-193785771D02*
X263911485Y-193071485D01*
X263554342Y-193785771D02*
X263554342Y-192285771D01*
X264125771Y-192285771D01*
X264268628Y-192357200D01*
X264340057Y-192428628D01*
X264411485Y-192571485D01*
X264411485Y-192785771D01*
X264340057Y-192928628D01*
X264268628Y-193000057D01*
X264125771Y-193071485D01*
X263554342Y-193071485D01*
X265625771Y-193714342D02*
X265482914Y-193785771D01*
X265197200Y-193785771D01*
X265054342Y-193714342D01*
X264982914Y-193571485D01*
X264982914Y-193000057D01*
X265054342Y-192857200D01*
X265197200Y-192785771D01*
X265482914Y-192785771D01*
X265625771Y-192857200D01*
X265697200Y-193000057D01*
X265697200Y-193142914D01*
X264982914Y-193285771D01*
X266197200Y-192785771D02*
X266554342Y-193785771D01*
X266911485Y-192785771D01*
X267482914Y-193642914D02*
X267554342Y-193714342D01*
X267482914Y-193785771D01*
X267411485Y-193714342D01*
X267482914Y-193642914D01*
X267482914Y-193785771D01*
X267482914Y-192857200D02*
X267554342Y-192928628D01*
X267482914Y-193000057D01*
X267411485Y-192928628D01*
X267482914Y-192857200D01*
X267482914Y-193000057D01*
D10*
D11*
X178362914Y-193714342D02*
X178577200Y-193785771D01*
X178934342Y-193785771D01*
X179077200Y-193714342D01*
X179148628Y-193642914D01*
X179220057Y-193500057D01*
X179220057Y-193357200D01*
X179148628Y-193214342D01*
X179077200Y-193142914D01*
X178934342Y-193071485D01*
X178648628Y-193000057D01*
X178505771Y-192928628D01*
X178434342Y-192857200D01*
X178362914Y-192714342D01*
X178362914Y-192571485D01*
X178434342Y-192428628D01*
X178505771Y-192357200D01*
X178648628Y-192285771D01*
X179005771Y-192285771D01*
X179220057Y-192357200D01*
X179862914Y-193785771D02*
X179862914Y-192785771D01*
X179862914Y-192285771D02*
X179791485Y-192357200D01*
X179862914Y-192428628D01*
X179934342Y-192357200D01*
X179862914Y-192285771D01*
X179862914Y-192428628D01*
X180434342Y-192785771D02*
X181220057Y-192785771D01*
X180434342Y-193785771D01*
X181220057Y-193785771D01*
X182362914Y-193714342D02*
X182220057Y-193785771D01*
X181934342Y-193785771D01*
X181791485Y-193714342D01*
X181720057Y-193571485D01*
X181720057Y-193000057D01*
X181791485Y-192857200D01*
X181934342Y-192785771D01*
X182220057Y-192785771D01*
X182362914Y-192857200D01*
X182434342Y-193000057D01*
X182434342Y-193142914D01*
X181720057Y-193285771D01*
X183077200Y-193642914D02*
X183148628Y-193714342D01*
X183077200Y-193785771D01*
X183005771Y-193714342D01*
X183077200Y-193642914D01*
X183077200Y-193785771D01*
X183077200Y-192857200D02*
X183148628Y-192928628D01*
X183077200Y-193000057D01*
X183005771Y-192928628D01*
X183077200Y-192857200D01*
X183077200Y-193000057D01*
X184862914Y-193357200D02*
X185577200Y-193357200D01*
X184720057Y-193785771D02*
X185220057Y-192285771D01*
X185720057Y-193785771D01*
X186862914Y-192785771D02*
X186862914Y-193785771D01*
X186505771Y-192214342D02*
X186148628Y-193285771D01*
X187077200Y-193285771D01*
D10*
D11*
X263434342Y-196585771D02*
X263434342Y-195085771D01*
X264791485Y-196585771D02*
X264791485Y-195085771D01*
X264791485Y-196514342D02*
X264648628Y-196585771D01*
X264362914Y-196585771D01*
X264220057Y-196514342D01*
X264148628Y-196442914D01*
X264077200Y-196300057D01*
X264077200Y-195871485D01*
X264148628Y-195728628D01*
X264220057Y-195657200D01*
X264362914Y-195585771D01*
X264648628Y-195585771D01*
X264791485Y-195657200D01*
X265505771Y-196442914D02*
X265577200Y-196514342D01*
X265505771Y-196585771D01*
X265434342Y-196514342D01*
X265505771Y-196442914D01*
X265505771Y-196585771D01*
X265505771Y-195657200D02*
X265577200Y-195728628D01*
X265505771Y-195800057D01*
X265434342Y-195728628D01*
X265505771Y-195657200D01*
X265505771Y-195800057D01*
X268148628Y-196585771D02*
X267291485Y-196585771D01*
X267720057Y-196585771D02*
X267720057Y-195085771D01*
X267577200Y-195300057D01*
X267434342Y-195442914D01*
X267291485Y-195514342D01*
X269862914Y-195014342D02*
X268577200Y-196942914D01*
X271148628Y-196585771D02*
X270291485Y-196585771D01*
X270720057Y-196585771D02*
X270720057Y-195085771D01*
X270577200Y-195300057D01*
X270434342Y-195442914D01*
X270291485Y-195514342D01*
D10*
D11*
X177002200Y-187507200D02*
X285002200Y-187507200D01*
D10*
D13*
X178714580Y-188211961D02*
X179857438Y-188211961D01*
X179036009Y-190211961D02*
X179286009Y-188211961D01*
X180274104Y-190211961D02*
X180440771Y-188878628D01*
X180524104Y-188211961D02*
X180416961Y-188307200D01*
X180500295Y-188402438D01*
X180607438Y-188307200D01*
X180524104Y-188211961D01*
X180500295Y-188402438D01*
X181107438Y-188878628D02*
X181869342Y-188878628D01*
X181476485Y-188211961D02*
X181262200Y-189926247D01*
X181333628Y-190116723D01*
X181512200Y-190211961D01*
X181702676Y-190211961D01*
X182655057Y-190211961D02*
X182476485Y-190116723D01*
X182405057Y-189926247D01*
X182619342Y-188211961D01*
X184190771Y-190116723D02*
X183988390Y-190211961D01*
X183607438Y-190211961D01*
X183428866Y-190116723D01*
X183357438Y-189926247D01*
X183452676Y-189164342D01*
X183571723Y-188973866D01*
X183774104Y-188878628D01*
X184155057Y-188878628D01*
X184333628Y-188973866D01*
X184405057Y-189164342D01*
X184381247Y-189354819D01*
X183405057Y-189545295D01*
X185155057Y-190021485D02*
X185238390Y-190116723D01*
X185131247Y-190211961D01*
X185047914Y-190116723D01*
X185155057Y-190021485D01*
X185131247Y-190211961D01*
X185286009Y-188973866D02*
X185369342Y-189069104D01*
X185262200Y-189164342D01*
X185178866Y-189069104D01*
X185286009Y-188973866D01*
X185262200Y-189164342D01*
D10*
D11*
X178934342Y-185600057D02*
X178434342Y-185600057D01*
X178434342Y-186385771D02*
X178434342Y-184885771D01*
X179148628Y-184885771D01*
X179720057Y-186385771D02*
X179720057Y-185385771D01*
X179720057Y-184885771D02*
X179648628Y-184957200D01*
X179720057Y-185028628D01*
X179791485Y-184957200D01*
X179720057Y-184885771D01*
X179720057Y-185028628D01*
X180648628Y-186385771D02*
X180505771Y-186314342D01*
X180434342Y-186171485D01*
X180434342Y-184885771D01*
X181791485Y-186314342D02*
X181648628Y-186385771D01*
X181362914Y-186385771D01*
X181220057Y-186314342D01*
X181148628Y-186171485D01*
X181148628Y-185600057D01*
X181220057Y-185457200D01*
X181362914Y-185385771D01*
X181648628Y-185385771D01*
X181791485Y-185457200D01*
X181862914Y-185600057D01*
X181862914Y-185742914D01*
X181148628Y-185885771D01*
X182505771Y-186242914D02*
X182577200Y-186314342D01*
X182505771Y-186385771D01*
X182434342Y-186314342D01*
X182505771Y-186242914D01*
X182505771Y-186385771D01*
X182505771Y-185457200D02*
X182577200Y-185528628D01*
X182505771Y-185600057D01*
X182434342Y-185528628D01*
X182505771Y-185457200D01*
X182505771Y-185600057D01*
X184577200Y-186385771D02*
X184434342Y-186314342D01*
X184362914Y-186171485D01*
X184362914Y-184885771D01*
X185362914Y-186385771D02*
X185220057Y-186314342D01*
X185148628Y-186242914D01*
X185077200Y-186100057D01*
X185077200Y-185671485D01*
X185148628Y-185528628D01*
X185220057Y-185457200D01*
X185362914Y-185385771D01*
X185577200Y-185385771D01*
X185720057Y-185457200D01*
X185791485Y-185528628D01*
X185862914Y-185671485D01*
X185862914Y-186100057D01*
X185791485Y-186242914D01*
X185720057Y-186314342D01*
X185577200Y-186385771D01*
X185362914Y-186385771D01*
X186505771Y-186385771D02*
X186505771Y-185385771D01*
X186505771Y-185671485D02*
X186577200Y-185528628D01*
X186648628Y-185457200D01*
X186791485Y-185385771D01*
X186934342Y-185385771D01*
X188077200Y-186385771D02*
X188077200Y-185600057D01*
X188005771Y-185457200D01*
X187862914Y-185385771D01*
X187577200Y-185385771D01*
X187434342Y-185457200D01*
X188077200Y-186314342D02*
X187934342Y-186385771D01*
X187577200Y-186385771D01*
X187434342Y-186314342D01*
X187362914Y-186171485D01*
X187362914Y-186028628D01*
X187434342Y-185885771D01*
X187577200Y-185814342D01*
X187934342Y-185814342D01*
X188077200Y-185742914D01*
X188791485Y-185814342D02*
X189934342Y-185814342D01*
X190648628Y-186385771D02*
X190648628Y-184885771D01*
X190648628Y-185457200D02*
X190791485Y-185385771D01*
X191077200Y-185385771D01*
X191220057Y-185457200D01*
X191291485Y-185528628D01*
X191362914Y-185671485D01*
X191362914Y-186100057D01*
X191291485Y-186242914D01*
X191220057Y-186314342D01*
X191077200Y-186385771D01*
X190791485Y-186385771D01*
X190648628Y-186314342D01*
X192220057Y-186385771D02*
X192077200Y-186314342D01*
X192005771Y-186171485D01*
X192005771Y-184885771D01*
X193434342Y-185385771D02*
X193434342Y-186385771D01*
X192791485Y-185385771D02*
X192791485Y-186171485D01*
X192862914Y-186314342D01*
X193005771Y-186385771D01*
X193220057Y-186385771D01*
X193362914Y-186314342D01*
X193434342Y-186242914D01*
X194720057Y-186314342D02*
X194577200Y-186385771D01*
X194291485Y-186385771D01*
X194148628Y-186314342D01*
X194077200Y-186171485D01*
X194077200Y-185600057D01*
X194148628Y-185457200D01*
X194291485Y-185385771D01*
X194577200Y-185385771D01*
X194720057Y-185457200D01*
X194791485Y-185600057D01*
X194791485Y-185742914D01*
X194077200Y-185885771D01*
X195434342Y-185385771D02*
X195434342Y-186885771D01*
X195434342Y-185457200D02*
X195577200Y-185385771D01*
X195862914Y-185385771D01*
X196005771Y-185457200D01*
X196077200Y-185528628D01*
X196148628Y-185671485D01*
X196148628Y-186100057D01*
X196077200Y-186242914D01*
X196005771Y-186314342D01*
X195862914Y-186385771D01*
X195577200Y-186385771D01*
X195434342Y-186314342D01*
X196791485Y-186385771D02*
X196791485Y-185385771D01*
X196791485Y-184885771D02*
X196720057Y-184957200D01*
X196791485Y-185028628D01*
X196862914Y-184957200D01*
X196791485Y-184885771D01*
X196791485Y-185028628D01*
X197720057Y-186385771D02*
X197577200Y-186314342D01*
X197505771Y-186171485D01*
X197505771Y-184885771D01*
X198505771Y-186385771D02*
X198362914Y-186314342D01*
X198291485Y-186171485D01*
X198291485Y-184885771D01*
X199077200Y-185814342D02*
X200220057Y-185814342D01*
X200862914Y-186314342D02*
X201005771Y-186385771D01*
X201291485Y-186385771D01*
X201434342Y-186314342D01*
X201505771Y-186171485D01*
X201505771Y-186100057D01*
X201434342Y-185957200D01*
X201291485Y-185885771D01*
X201077200Y-185885771D01*
X200934342Y-185814342D01*
X200862914Y-185671485D01*
X200862914Y-185600057D01*
X200934342Y-185457200D01*
X201077200Y-185385771D01*
X201291485Y-185385771D01*
X201434342Y-185457200D01*
X202791485Y-186314342D02*
X202648628Y-186385771D01*
X202362914Y-186385771D01*
X202220057Y-186314342D01*
X202148628Y-186242914D01*
X202077200Y-186100057D01*
X202077200Y-185671485D01*
X202148628Y-185528628D01*
X202220057Y-185457200D01*
X202362914Y-185385771D01*
X202648628Y-185385771D01*
X202791485Y-185457200D01*
X203434342Y-186385771D02*
X203434342Y-184885771D01*
X204077200Y-186385771D02*
X204077200Y-185600057D01*
X204005771Y-185457200D01*
X203862914Y-185385771D01*
X203648628Y-185385771D01*
X203505771Y-185457200D01*
X203434342Y-185528628D01*
X204791485Y-186242914D02*
X204862914Y-186314342D01*
X204791485Y-186385771D01*
X204720057Y-186314342D01*
X204791485Y-186242914D01*
X204791485Y-186385771D01*
X205505771Y-186385771D02*
X205505771Y-184885771D01*
X205648628Y-185814342D02*
X206077200Y-186385771D01*
X206077200Y-185385771D02*
X205505771Y-185957200D01*
X206720057Y-186385771D02*
X206720057Y-185385771D01*
X206720057Y-184885771D02*
X206648628Y-184957200D01*
X206720057Y-185028628D01*
X206791485Y-184957200D01*
X206720057Y-184885771D01*
X206720057Y-185028628D01*
X208077200Y-186314342D02*
X207934342Y-186385771D01*
X207648628Y-186385771D01*
X207505771Y-186314342D01*
X207434342Y-186242914D01*
X207362914Y-186100057D01*
X207362914Y-185671485D01*
X207434342Y-185528628D01*
X207505771Y-185457200D01*
X207648628Y-185385771D01*
X207934342Y-185385771D01*
X208077200Y-185457200D01*
X209362914Y-186385771D02*
X209362914Y-185600057D01*
X209291485Y-185457200D01*
X209148628Y-185385771D01*
X208862914Y-185385771D01*
X208720057Y-185457200D01*
X209362914Y-186314342D02*
X209220057Y-186385771D01*
X208862914Y-186385771D01*
X208720057Y-186314342D01*
X208648628Y-186171485D01*
X208648628Y-186028628D01*
X208720057Y-185885771D01*
X208862914Y-185814342D01*
X209220057Y-185814342D01*
X209362914Y-185742914D01*
X210720057Y-186385771D02*
X210720057Y-184885771D01*
X210720057Y-186314342D02*
X210577200Y-186385771D01*
X210291485Y-186385771D01*
X210148628Y-186314342D01*
X210077200Y-186242914D01*
X210005771Y-186100057D01*
X210005771Y-185671485D01*
X210077200Y-185528628D01*
X210148628Y-185457200D01*
X210291485Y-185385771D01*
X210577200Y-185385771D01*
X210720057Y-185457200D01*
X211077200Y-186528628D02*
X212220057Y-186528628D01*
X212577200Y-185385771D02*
X212577200Y-186885771D01*
X212577200Y-185457200D02*
X212720057Y-185385771D01*
X213005771Y-185385771D01*
X213148628Y-185457200D01*
X213220057Y-185528628D01*
X213291485Y-185671485D01*
X213291485Y-186100057D01*
X213220057Y-186242914D01*
X213148628Y-186314342D01*
X213005771Y-186385771D01*
X212720057Y-186385771D01*
X212577200Y-186314342D01*
X214577200Y-186314342D02*
X214434342Y-186385771D01*
X214148628Y-186385771D01*
X214005771Y-186314342D01*
X213934342Y-186242914D01*
X213862914Y-186100057D01*
X213862914Y-185671485D01*
X213934342Y-185528628D01*
X214005771Y-185457200D01*
X214148628Y-185385771D01*
X214434342Y-185385771D01*
X214577200Y-185457200D01*
X215220057Y-186385771D02*
X215220057Y-184885771D01*
X215220057Y-185457200D02*
X215362914Y-185385771D01*
X215648628Y-185385771D01*
X215791485Y-185457200D01*
X215862914Y-185528628D01*
X215934342Y-185671485D01*
X215934342Y-186100057D01*
X215862914Y-186242914D01*
X215791485Y-186314342D01*
X215648628Y-186385771D01*
X215362914Y-186385771D01*
X215220057Y-186314342D01*
D10*
D11*
X177002200Y-181507200D02*
X285002200Y-181507200D01*
D10*
D11*
X178362914Y-183614342D02*
X178577200Y-183685771D01*
X178934342Y-183685771D01*
X179077200Y-183614342D01*
X179148628Y-183542914D01*
X179220057Y-183400057D01*
X179220057Y-183257200D01*
X179148628Y-183114342D01*
X179077200Y-183042914D01*
X178934342Y-182971485D01*
X178648628Y-182900057D01*
X178505771Y-182828628D01*
X178434342Y-182757200D01*
X178362914Y-182614342D01*
X178362914Y-182471485D01*
X178434342Y-182328628D01*
X178505771Y-182257200D01*
X178648628Y-182185771D01*
X179005771Y-182185771D01*
X179220057Y-182257200D01*
X179862914Y-183685771D02*
X179862914Y-182185771D01*
X180505771Y-183685771D02*
X180505771Y-182900057D01*
X180434342Y-182757200D01*
X180291485Y-182685771D01*
X180077200Y-182685771D01*
X179934342Y-182757200D01*
X179862914Y-182828628D01*
X181791485Y-183614342D02*
X181648628Y-183685771D01*
X181362914Y-183685771D01*
X181220057Y-183614342D01*
X181148628Y-183471485D01*
X181148628Y-182900057D01*
X181220057Y-182757200D01*
X181362914Y-182685771D01*
X181648628Y-182685771D01*
X181791485Y-182757200D01*
X181862914Y-182900057D01*
X181862914Y-183042914D01*
X181148628Y-183185771D01*
X183077200Y-183614342D02*
X182934342Y-183685771D01*
X182648628Y-183685771D01*
X182505771Y-183614342D01*
X182434342Y-183471485D01*
X182434342Y-182900057D01*
X182505771Y-182757200D01*
X182648628Y-182685771D01*
X182934342Y-182685771D01*
X183077200Y-182757200D01*
X183148628Y-182900057D01*
X183148628Y-183042914D01*
X182434342Y-183185771D01*
X183577200Y-182685771D02*
X184148628Y-182685771D01*
X183791485Y-182185771D02*
X183791485Y-183471485D01*
X183862914Y-183614342D01*
X184005771Y-183685771D01*
X184148628Y-183685771D01*
X184648628Y-183542914D02*
X184720057Y-183614342D01*
X184648628Y-183685771D01*
X184577200Y-183614342D01*
X184648628Y-183542914D01*
X184648628Y-183685771D01*
X184648628Y-182757200D02*
X184720057Y-182828628D01*
X184648628Y-182900057D01*
X184577200Y-182828628D01*
X184648628Y-182757200D01*
X184648628Y-182900057D01*
D10*
D12*
D10*
D11*
D10*
D11*
D10*
D11*
D10*
D11*
D10*
D11*
X197002200Y-191507200D02*
X197002200Y-194507200D01*
D10*
D11*
X261002200Y-191507200D02*
X261002200Y-198007200D01*
%TO.C,U5*%
X61698095Y-66159380D02*
X61698095Y-66968904D01*
X61745714Y-67064142D01*
X61793333Y-67111761D01*
X61888571Y-67159380D01*
X62079047Y-67159380D01*
X62174285Y-67111761D01*
X62221904Y-67064142D01*
X62269523Y-66968904D01*
X62269523Y-66159380D01*
X63221904Y-66159380D02*
X62745714Y-66159380D01*
X62698095Y-66635571D01*
X62745714Y-66587952D01*
X62840952Y-66540333D01*
X63079047Y-66540333D01*
X63174285Y-66587952D01*
X63221904Y-66635571D01*
X63269523Y-66730809D01*
X63269523Y-66968904D01*
X63221904Y-67064142D01*
X63174285Y-67111761D01*
X63079047Y-67159380D01*
X62840952Y-67159380D01*
X62745714Y-67111761D01*
X62698095Y-67064142D01*
%TO.C,J3*%
X54531666Y-58097380D02*
X54531666Y-58811666D01*
X54484047Y-58954523D01*
X54388809Y-59049761D01*
X54245952Y-59097380D01*
X54150714Y-59097380D01*
X54912619Y-58097380D02*
X55531666Y-58097380D01*
X55198333Y-58478333D01*
X55341190Y-58478333D01*
X55436428Y-58525952D01*
X55484047Y-58573571D01*
X55531666Y-58668809D01*
X55531666Y-58906904D01*
X55484047Y-59002142D01*
X55436428Y-59049761D01*
X55341190Y-59097380D01*
X55055476Y-59097380D01*
X54960238Y-59049761D01*
X54912619Y-59002142D01*
%TO.C,C9*%
X57721333Y-57920142D02*
X57673714Y-57967761D01*
X57530857Y-58015380D01*
X57435619Y-58015380D01*
X57292761Y-57967761D01*
X57197523Y-57872523D01*
X57149904Y-57777285D01*
X57102285Y-57586809D01*
X57102285Y-57443952D01*
X57149904Y-57253476D01*
X57197523Y-57158238D01*
X57292761Y-57063000D01*
X57435619Y-57015380D01*
X57530857Y-57015380D01*
X57673714Y-57063000D01*
X57721333Y-57110619D01*
X58197523Y-58015380D02*
X58388000Y-58015380D01*
X58483238Y-57967761D01*
X58530857Y-57920142D01*
X58626095Y-57777285D01*
X58673714Y-57586809D01*
X58673714Y-57205857D01*
X58626095Y-57110619D01*
X58578476Y-57063000D01*
X58483238Y-57015380D01*
X58292761Y-57015380D01*
X58197523Y-57063000D01*
X58149904Y-57110619D01*
X58102285Y-57205857D01*
X58102285Y-57443952D01*
X58149904Y-57539190D01*
X58197523Y-57586809D01*
X58292761Y-57634428D01*
X58483238Y-57634428D01*
X58578476Y-57586809D01*
X58626095Y-57539190D01*
X58673714Y-57443952D01*
%TO.C,C8*%
X90053333Y-74072142D02*
X90005714Y-74119761D01*
X89862857Y-74167380D01*
X89767619Y-74167380D01*
X89624761Y-74119761D01*
X89529523Y-74024523D01*
X89481904Y-73929285D01*
X89434285Y-73738809D01*
X89434285Y-73595952D01*
X89481904Y-73405476D01*
X89529523Y-73310238D01*
X89624761Y-73215000D01*
X89767619Y-73167380D01*
X89862857Y-73167380D01*
X90005714Y-73215000D01*
X90053333Y-73262619D01*
X90624761Y-73595952D02*
X90529523Y-73548333D01*
X90481904Y-73500714D01*
X90434285Y-73405476D01*
X90434285Y-73357857D01*
X90481904Y-73262619D01*
X90529523Y-73215000D01*
X90624761Y-73167380D01*
X90815238Y-73167380D01*
X90910476Y-73215000D01*
X90958095Y-73262619D01*
X91005714Y-73357857D01*
X91005714Y-73405476D01*
X90958095Y-73500714D01*
X90910476Y-73548333D01*
X90815238Y-73595952D01*
X90624761Y-73595952D01*
X90529523Y-73643571D01*
X90481904Y-73691190D01*
X90434285Y-73786428D01*
X90434285Y-73976904D01*
X90481904Y-74072142D01*
X90529523Y-74119761D01*
X90624761Y-74167380D01*
X90815238Y-74167380D01*
X90910476Y-74119761D01*
X90958095Y-74072142D01*
X91005714Y-73976904D01*
X91005714Y-73786428D01*
X90958095Y-73691190D01*
X90910476Y-73643571D01*
X90815238Y-73595952D01*
%TO.C,J1*%
X103186666Y-92667380D02*
X103186666Y-93381666D01*
X103139047Y-93524523D01*
X103043809Y-93619761D01*
X102900952Y-93667380D01*
X102805714Y-93667380D01*
X104186666Y-93667380D02*
X103615238Y-93667380D01*
X103900952Y-93667380D02*
X103900952Y-92667380D01*
X103805714Y-92810238D01*
X103710476Y-92905476D01*
X103615238Y-92953095D01*
%TO.C,J2*%
X119586666Y-82367380D02*
X119586666Y-83081666D01*
X119539047Y-83224523D01*
X119443809Y-83319761D01*
X119300952Y-83367380D01*
X119205714Y-83367380D01*
X120015238Y-82462619D02*
X120062857Y-82415000D01*
X120158095Y-82367380D01*
X120396190Y-82367380D01*
X120491428Y-82415000D01*
X120539047Y-82462619D01*
X120586666Y-82557857D01*
X120586666Y-82653095D01*
X120539047Y-82795952D01*
X119967619Y-83367380D01*
X120586666Y-83367380D01*
%TO.C,R3*%
X104923333Y-72747380D02*
X104590000Y-72271190D01*
X104351904Y-72747380D02*
X104351904Y-71747380D01*
X104732857Y-71747380D01*
X104828095Y-71795000D01*
X104875714Y-71842619D01*
X104923333Y-71937857D01*
X104923333Y-72080714D01*
X104875714Y-72175952D01*
X104828095Y-72223571D01*
X104732857Y-72271190D01*
X104351904Y-72271190D01*
X105256666Y-71747380D02*
X105875714Y-71747380D01*
X105542380Y-72128333D01*
X105685238Y-72128333D01*
X105780476Y-72175952D01*
X105828095Y-72223571D01*
X105875714Y-72318809D01*
X105875714Y-72556904D01*
X105828095Y-72652142D01*
X105780476Y-72699761D01*
X105685238Y-72747380D01*
X105399523Y-72747380D01*
X105304285Y-72699761D01*
X105256666Y-72652142D01*
%TO.C,U3*%
X104878095Y-88511380D02*
X104878095Y-89320904D01*
X104925714Y-89416142D01*
X104973333Y-89463761D01*
X105068571Y-89511380D01*
X105259047Y-89511380D01*
X105354285Y-89463761D01*
X105401904Y-89416142D01*
X105449523Y-89320904D01*
X105449523Y-88511380D01*
X105830476Y-88511380D02*
X106449523Y-88511380D01*
X106116190Y-88892333D01*
X106259047Y-88892333D01*
X106354285Y-88939952D01*
X106401904Y-88987571D01*
X106449523Y-89082809D01*
X106449523Y-89320904D01*
X106401904Y-89416142D01*
X106354285Y-89463761D01*
X106259047Y-89511380D01*
X105973333Y-89511380D01*
X105878095Y-89463761D01*
X105830476Y-89416142D01*
%TO.C,C6*%
X116649333Y-95512142D02*
X116601714Y-95559761D01*
X116458857Y-95607380D01*
X116363619Y-95607380D01*
X116220761Y-95559761D01*
X116125523Y-95464523D01*
X116077904Y-95369285D01*
X116030285Y-95178809D01*
X116030285Y-95035952D01*
X116077904Y-94845476D01*
X116125523Y-94750238D01*
X116220761Y-94655000D01*
X116363619Y-94607380D01*
X116458857Y-94607380D01*
X116601714Y-94655000D01*
X116649333Y-94702619D01*
X117506476Y-94607380D02*
X117316000Y-94607380D01*
X117220761Y-94655000D01*
X117173142Y-94702619D01*
X117077904Y-94845476D01*
X117030285Y-95035952D01*
X117030285Y-95416904D01*
X117077904Y-95512142D01*
X117125523Y-95559761D01*
X117220761Y-95607380D01*
X117411238Y-95607380D01*
X117506476Y-95559761D01*
X117554095Y-95512142D01*
X117601714Y-95416904D01*
X117601714Y-95178809D01*
X117554095Y-95083571D01*
X117506476Y-95035952D01*
X117411238Y-94988333D01*
X117220761Y-94988333D01*
X117125523Y-95035952D01*
X117077904Y-95083571D01*
X117030285Y-95178809D01*
%TO.C,D2*%
X89381904Y-82267380D02*
X89381904Y-81267380D01*
X89620000Y-81267380D01*
X89762857Y-81315000D01*
X89858095Y-81410238D01*
X89905714Y-81505476D01*
X89953333Y-81695952D01*
X89953333Y-81838809D01*
X89905714Y-82029285D01*
X89858095Y-82124523D01*
X89762857Y-82219761D01*
X89620000Y-82267380D01*
X89381904Y-82267380D01*
X90334285Y-81362619D02*
X90381904Y-81315000D01*
X90477142Y-81267380D01*
X90715238Y-81267380D01*
X90810476Y-81315000D01*
X90858095Y-81362619D01*
X90905714Y-81457857D01*
X90905714Y-81553095D01*
X90858095Y-81695952D01*
X90286666Y-82267380D01*
X90905714Y-82267380D01*
X78058095Y-82967380D02*
X78058095Y-81967380D01*
X78629523Y-82967380D02*
X78200952Y-82395952D01*
X78629523Y-81967380D02*
X78058095Y-82538809D01*
%TO.C,J4*%
X85586666Y-100667380D02*
X85586666Y-101381666D01*
X85539047Y-101524523D01*
X85443809Y-101619761D01*
X85300952Y-101667380D01*
X85205714Y-101667380D01*
X86491428Y-101000714D02*
X86491428Y-101667380D01*
X86253333Y-100619761D02*
X86015238Y-101334047D01*
X86634285Y-101334047D01*
%TO.C,U2*%
X62714095Y-78859380D02*
X62714095Y-79668904D01*
X62761714Y-79764142D01*
X62809333Y-79811761D01*
X62904571Y-79859380D01*
X63095047Y-79859380D01*
X63190285Y-79811761D01*
X63237904Y-79764142D01*
X63285523Y-79668904D01*
X63285523Y-78859380D01*
X63714095Y-78954619D02*
X63761714Y-78907000D01*
X63856952Y-78859380D01*
X64095047Y-78859380D01*
X64190285Y-78907000D01*
X64237904Y-78954619D01*
X64285523Y-79049857D01*
X64285523Y-79145095D01*
X64237904Y-79287952D01*
X63666476Y-79859380D01*
X64285523Y-79859380D01*
%TO.C,C2*%
X64673333Y-55087142D02*
X64625714Y-55134761D01*
X64482857Y-55182380D01*
X64387619Y-55182380D01*
X64244761Y-55134761D01*
X64149523Y-55039523D01*
X64101904Y-54944285D01*
X64054285Y-54753809D01*
X64054285Y-54610952D01*
X64101904Y-54420476D01*
X64149523Y-54325238D01*
X64244761Y-54230000D01*
X64387619Y-54182380D01*
X64482857Y-54182380D01*
X64625714Y-54230000D01*
X64673333Y-54277619D01*
X65054285Y-54277619D02*
X65101904Y-54230000D01*
X65197142Y-54182380D01*
X65435238Y-54182380D01*
X65530476Y-54230000D01*
X65578095Y-54277619D01*
X65625714Y-54372857D01*
X65625714Y-54468095D01*
X65578095Y-54610952D01*
X65006666Y-55182380D01*
X65625714Y-55182380D01*
%TO.C,C4*%
X69953333Y-93222142D02*
X69905714Y-93269761D01*
X69762857Y-93317380D01*
X69667619Y-93317380D01*
X69524761Y-93269761D01*
X69429523Y-93174523D01*
X69381904Y-93079285D01*
X69334285Y-92888809D01*
X69334285Y-92745952D01*
X69381904Y-92555476D01*
X69429523Y-92460238D01*
X69524761Y-92365000D01*
X69667619Y-92317380D01*
X69762857Y-92317380D01*
X69905714Y-92365000D01*
X69953333Y-92412619D01*
X70810476Y-92650714D02*
X70810476Y-93317380D01*
X70572380Y-92269761D02*
X70334285Y-92984047D01*
X70953333Y-92984047D01*
%TO.C,R8*%
X107030666Y-66560904D02*
X106764000Y-66179952D01*
X106573523Y-66560904D02*
X106573523Y-65760904D01*
X106878285Y-65760904D01*
X106954476Y-65799000D01*
X106992571Y-65837095D01*
X107030666Y-65913285D01*
X107030666Y-66027571D01*
X106992571Y-66103761D01*
X106954476Y-66141857D01*
X106878285Y-66179952D01*
X106573523Y-66179952D01*
X107487809Y-66103761D02*
X107411619Y-66065666D01*
X107373523Y-66027571D01*
X107335428Y-65951380D01*
X107335428Y-65913285D01*
X107373523Y-65837095D01*
X107411619Y-65799000D01*
X107487809Y-65760904D01*
X107640190Y-65760904D01*
X107716380Y-65799000D01*
X107754476Y-65837095D01*
X107792571Y-65913285D01*
X107792571Y-65951380D01*
X107754476Y-66027571D01*
X107716380Y-66065666D01*
X107640190Y-66103761D01*
X107487809Y-66103761D01*
X107411619Y-66141857D01*
X107373523Y-66179952D01*
X107335428Y-66256142D01*
X107335428Y-66408523D01*
X107373523Y-66484714D01*
X107411619Y-66522809D01*
X107487809Y-66560904D01*
X107640190Y-66560904D01*
X107716380Y-66522809D01*
X107754476Y-66484714D01*
X107792571Y-66408523D01*
X107792571Y-66256142D01*
X107754476Y-66179952D01*
X107716380Y-66141857D01*
X107640190Y-66103761D01*
%TO.C,D6*%
X89153904Y-58523380D02*
X89153904Y-57523380D01*
X89392000Y-57523380D01*
X89534857Y-57571000D01*
X89630095Y-57666238D01*
X89677714Y-57761476D01*
X89725333Y-57951952D01*
X89725333Y-58094809D01*
X89677714Y-58285285D01*
X89630095Y-58380523D01*
X89534857Y-58475761D01*
X89392000Y-58523380D01*
X89153904Y-58523380D01*
X90582476Y-57523380D02*
X90392000Y-57523380D01*
X90296761Y-57571000D01*
X90249142Y-57618619D01*
X90153904Y-57761476D01*
X90106285Y-57951952D01*
X90106285Y-58332904D01*
X90153904Y-58428142D01*
X90201523Y-58475761D01*
X90296761Y-58523380D01*
X90487238Y-58523380D01*
X90582476Y-58475761D01*
X90630095Y-58428142D01*
X90677714Y-58332904D01*
X90677714Y-58094809D01*
X90630095Y-57999571D01*
X90582476Y-57951952D01*
X90487238Y-57904333D01*
X90296761Y-57904333D01*
X90201523Y-57951952D01*
X90153904Y-57999571D01*
X90106285Y-58094809D01*
%TO.C,D8*%
X94233904Y-58523380D02*
X94233904Y-57523380D01*
X94472000Y-57523380D01*
X94614857Y-57571000D01*
X94710095Y-57666238D01*
X94757714Y-57761476D01*
X94805333Y-57951952D01*
X94805333Y-58094809D01*
X94757714Y-58285285D01*
X94710095Y-58380523D01*
X94614857Y-58475761D01*
X94472000Y-58523380D01*
X94233904Y-58523380D01*
X95376761Y-57951952D02*
X95281523Y-57904333D01*
X95233904Y-57856714D01*
X95186285Y-57761476D01*
X95186285Y-57713857D01*
X95233904Y-57618619D01*
X95281523Y-57571000D01*
X95376761Y-57523380D01*
X95567238Y-57523380D01*
X95662476Y-57571000D01*
X95710095Y-57618619D01*
X95757714Y-57713857D01*
X95757714Y-57761476D01*
X95710095Y-57856714D01*
X95662476Y-57904333D01*
X95567238Y-57951952D01*
X95376761Y-57951952D01*
X95281523Y-57999571D01*
X95233904Y-58047190D01*
X95186285Y-58142428D01*
X95186285Y-58332904D01*
X95233904Y-58428142D01*
X95281523Y-58475761D01*
X95376761Y-58523380D01*
X95567238Y-58523380D01*
X95662476Y-58475761D01*
X95710095Y-58428142D01*
X95757714Y-58332904D01*
X95757714Y-58142428D01*
X95710095Y-58047190D01*
X95662476Y-57999571D01*
X95567238Y-57951952D01*
%TO.C,D1*%
X89481904Y-79467380D02*
X89481904Y-78467380D01*
X89720000Y-78467380D01*
X89862857Y-78515000D01*
X89958095Y-78610238D01*
X90005714Y-78705476D01*
X90053333Y-78895952D01*
X90053333Y-79038809D01*
X90005714Y-79229285D01*
X89958095Y-79324523D01*
X89862857Y-79419761D01*
X89720000Y-79467380D01*
X89481904Y-79467380D01*
X91005714Y-79467380D02*
X90434285Y-79467380D01*
X90720000Y-79467380D02*
X90720000Y-78467380D01*
X90624761Y-78610238D01*
X90529523Y-78705476D01*
X90434285Y-78753095D01*
X78158095Y-79267380D02*
X78158095Y-78267380D01*
X78729523Y-79267380D02*
X78300952Y-78695952D01*
X78729523Y-78267380D02*
X78158095Y-78838809D01*
%TO.C,C1*%
X114253333Y-72144142D02*
X114205714Y-72191761D01*
X114062857Y-72239380D01*
X113967619Y-72239380D01*
X113824761Y-72191761D01*
X113729523Y-72096523D01*
X113681904Y-72001285D01*
X113634285Y-71810809D01*
X113634285Y-71667952D01*
X113681904Y-71477476D01*
X113729523Y-71382238D01*
X113824761Y-71287000D01*
X113967619Y-71239380D01*
X114062857Y-71239380D01*
X114205714Y-71287000D01*
X114253333Y-71334619D01*
X115205714Y-72239380D02*
X114634285Y-72239380D01*
X114920000Y-72239380D02*
X114920000Y-71239380D01*
X114824761Y-71382238D01*
X114729523Y-71477476D01*
X114634285Y-71525095D01*
%TO.C,C3*%
X114353333Y-65572142D02*
X114305714Y-65619761D01*
X114162857Y-65667380D01*
X114067619Y-65667380D01*
X113924761Y-65619761D01*
X113829523Y-65524523D01*
X113781904Y-65429285D01*
X113734285Y-65238809D01*
X113734285Y-65095952D01*
X113781904Y-64905476D01*
X113829523Y-64810238D01*
X113924761Y-64715000D01*
X114067619Y-64667380D01*
X114162857Y-64667380D01*
X114305714Y-64715000D01*
X114353333Y-64762619D01*
X114686666Y-64667380D02*
X115305714Y-64667380D01*
X114972380Y-65048333D01*
X115115238Y-65048333D01*
X115210476Y-65095952D01*
X115258095Y-65143571D01*
X115305714Y-65238809D01*
X115305714Y-65476904D01*
X115258095Y-65572142D01*
X115210476Y-65619761D01*
X115115238Y-65667380D01*
X114829523Y-65667380D01*
X114734285Y-65619761D01*
X114686666Y-65572142D01*
%TO.C,R7*%
X109537333Y-88495380D02*
X109204000Y-88019190D01*
X108965904Y-88495380D02*
X108965904Y-87495380D01*
X109346857Y-87495380D01*
X109442095Y-87543000D01*
X109489714Y-87590619D01*
X109537333Y-87685857D01*
X109537333Y-87828714D01*
X109489714Y-87923952D01*
X109442095Y-87971571D01*
X109346857Y-88019190D01*
X108965904Y-88019190D01*
X109870666Y-87495380D02*
X110537333Y-87495380D01*
X110108761Y-88495380D01*
%TO.C,D3*%
X90169904Y-85447380D02*
X90169904Y-84447380D01*
X90408000Y-84447380D01*
X90550857Y-84495000D01*
X90646095Y-84590238D01*
X90693714Y-84685476D01*
X90741333Y-84875952D01*
X90741333Y-85018809D01*
X90693714Y-85209285D01*
X90646095Y-85304523D01*
X90550857Y-85399761D01*
X90408000Y-85447380D01*
X90169904Y-85447380D01*
X91074666Y-84447380D02*
X91693714Y-84447380D01*
X91360380Y-84828333D01*
X91503238Y-84828333D01*
X91598476Y-84875952D01*
X91646095Y-84923571D01*
X91693714Y-85018809D01*
X91693714Y-85256904D01*
X91646095Y-85352142D01*
X91598476Y-85399761D01*
X91503238Y-85447380D01*
X91217523Y-85447380D01*
X91122285Y-85399761D01*
X91074666Y-85352142D01*
X92648095Y-82567380D02*
X92648095Y-81567380D01*
X93219523Y-82567380D02*
X92790952Y-81995952D01*
X93219523Y-81567380D02*
X92648095Y-82138809D01*
%TO.C,R1*%
X101663333Y-82287380D02*
X101330000Y-81811190D01*
X101091904Y-82287380D02*
X101091904Y-81287380D01*
X101472857Y-81287380D01*
X101568095Y-81335000D01*
X101615714Y-81382619D01*
X101663333Y-81477857D01*
X101663333Y-81620714D01*
X101615714Y-81715952D01*
X101568095Y-81763571D01*
X101472857Y-81811190D01*
X101091904Y-81811190D01*
X102615714Y-82287380D02*
X102044285Y-82287380D01*
X102330000Y-82287380D02*
X102330000Y-81287380D01*
X102234761Y-81430238D01*
X102139523Y-81525476D01*
X102044285Y-81573095D01*
%TO.C,D7*%
X99313904Y-58523380D02*
X99313904Y-57523380D01*
X99552000Y-57523380D01*
X99694857Y-57571000D01*
X99790095Y-57666238D01*
X99837714Y-57761476D01*
X99885333Y-57951952D01*
X99885333Y-58094809D01*
X99837714Y-58285285D01*
X99790095Y-58380523D01*
X99694857Y-58475761D01*
X99552000Y-58523380D01*
X99313904Y-58523380D01*
X100218666Y-57523380D02*
X100885333Y-57523380D01*
X100456761Y-58523380D01*
%TO.C,R4*%
X91453333Y-72167380D02*
X91120000Y-71691190D01*
X90881904Y-72167380D02*
X90881904Y-71167380D01*
X91262857Y-71167380D01*
X91358095Y-71215000D01*
X91405714Y-71262619D01*
X91453333Y-71357857D01*
X91453333Y-71500714D01*
X91405714Y-71595952D01*
X91358095Y-71643571D01*
X91262857Y-71691190D01*
X90881904Y-71691190D01*
X92310476Y-71500714D02*
X92310476Y-72167380D01*
X92072380Y-71119761D02*
X91834285Y-71834047D01*
X92453333Y-71834047D01*
%TO.C,U4*%
X113658095Y-101667380D02*
X113658095Y-102476904D01*
X113705714Y-102572142D01*
X113753333Y-102619761D01*
X113848571Y-102667380D01*
X114039047Y-102667380D01*
X114134285Y-102619761D01*
X114181904Y-102572142D01*
X114229523Y-102476904D01*
X114229523Y-101667380D01*
X115134285Y-102000714D02*
X115134285Y-102667380D01*
X114896190Y-101619761D02*
X114658095Y-102334047D01*
X115277142Y-102334047D01*
%TO.C,C5*%
X67373333Y-81288142D02*
X67325714Y-81335761D01*
X67182857Y-81383380D01*
X67087619Y-81383380D01*
X66944761Y-81335761D01*
X66849523Y-81240523D01*
X66801904Y-81145285D01*
X66754285Y-80954809D01*
X66754285Y-80811952D01*
X66801904Y-80621476D01*
X66849523Y-80526238D01*
X66944761Y-80431000D01*
X67087619Y-80383380D01*
X67182857Y-80383380D01*
X67325714Y-80431000D01*
X67373333Y-80478619D01*
X68278095Y-80383380D02*
X67801904Y-80383380D01*
X67754285Y-80859571D01*
X67801904Y-80811952D01*
X67897142Y-80764333D01*
X68135238Y-80764333D01*
X68230476Y-80811952D01*
X68278095Y-80859571D01*
X68325714Y-80954809D01*
X68325714Y-81192904D01*
X68278095Y-81288142D01*
X68230476Y-81335761D01*
X68135238Y-81383380D01*
X67897142Y-81383380D01*
X67801904Y-81335761D01*
X67754285Y-81288142D01*
%TO.C,D5*%
X104393904Y-58523380D02*
X104393904Y-57523380D01*
X104632000Y-57523380D01*
X104774857Y-57571000D01*
X104870095Y-57666238D01*
X104917714Y-57761476D01*
X104965333Y-57951952D01*
X104965333Y-58094809D01*
X104917714Y-58285285D01*
X104870095Y-58380523D01*
X104774857Y-58475761D01*
X104632000Y-58523380D01*
X104393904Y-58523380D01*
X105870095Y-57523380D02*
X105393904Y-57523380D01*
X105346285Y-57999571D01*
X105393904Y-57951952D01*
X105489142Y-57904333D01*
X105727238Y-57904333D01*
X105822476Y-57951952D01*
X105870095Y-57999571D01*
X105917714Y-58094809D01*
X105917714Y-58332904D01*
X105870095Y-58428142D01*
X105822476Y-58475761D01*
X105727238Y-58523380D01*
X105489142Y-58523380D01*
X105393904Y-58475761D01*
X105346285Y-58428142D01*
%TO.C,R5*%
X92265333Y-67159380D02*
X91932000Y-66683190D01*
X91693904Y-67159380D02*
X91693904Y-66159380D01*
X92074857Y-66159380D01*
X92170095Y-66207000D01*
X92217714Y-66254619D01*
X92265333Y-66349857D01*
X92265333Y-66492714D01*
X92217714Y-66587952D01*
X92170095Y-66635571D01*
X92074857Y-66683190D01*
X91693904Y-66683190D01*
X93170095Y-66159380D02*
X92693904Y-66159380D01*
X92646285Y-66635571D01*
X92693904Y-66587952D01*
X92789142Y-66540333D01*
X93027238Y-66540333D01*
X93122476Y-66587952D01*
X93170095Y-66635571D01*
X93217714Y-66730809D01*
X93217714Y-66968904D01*
X93170095Y-67064142D01*
X93122476Y-67111761D01*
X93027238Y-67159380D01*
X92789142Y-67159380D01*
X92693904Y-67111761D01*
X92646285Y-67064142D01*
%TO.C,R2*%
X77353333Y-93947380D02*
X77020000Y-93471190D01*
X76781904Y-93947380D02*
X76781904Y-92947380D01*
X77162857Y-92947380D01*
X77258095Y-92995000D01*
X77305714Y-93042619D01*
X77353333Y-93137857D01*
X77353333Y-93280714D01*
X77305714Y-93375952D01*
X77258095Y-93423571D01*
X77162857Y-93471190D01*
X76781904Y-93471190D01*
X77734285Y-93042619D02*
X77781904Y-92995000D01*
X77877142Y-92947380D01*
X78115238Y-92947380D01*
X78210476Y-92995000D01*
X78258095Y-93042619D01*
X78305714Y-93137857D01*
X78305714Y-93233095D01*
X78258095Y-93375952D01*
X77686666Y-93947380D01*
X78305714Y-93947380D01*
%TO.C,D4*%
X84581904Y-95187380D02*
X84581904Y-94187380D01*
X84820000Y-94187380D01*
X84962857Y-94235000D01*
X85058095Y-94330238D01*
X85105714Y-94425476D01*
X85153333Y-94615952D01*
X85153333Y-94758809D01*
X85105714Y-94949285D01*
X85058095Y-95044523D01*
X84962857Y-95139761D01*
X84820000Y-95187380D01*
X84581904Y-95187380D01*
X86010476Y-94520714D02*
X86010476Y-95187380D01*
X85772380Y-94139761D02*
X85534285Y-94854047D01*
X86153333Y-94854047D01*
X88868095Y-94867380D02*
X88868095Y-93867380D01*
X89439523Y-94867380D02*
X89010952Y-94295952D01*
X89439523Y-93867380D02*
X88868095Y-94438809D01*
%TO.C,R6*%
X98853333Y-65967380D02*
X98520000Y-65491190D01*
X98281904Y-65967380D02*
X98281904Y-64967380D01*
X98662857Y-64967380D01*
X98758095Y-65015000D01*
X98805714Y-65062619D01*
X98853333Y-65157857D01*
X98853333Y-65300714D01*
X98805714Y-65395952D01*
X98758095Y-65443571D01*
X98662857Y-65491190D01*
X98281904Y-65491190D01*
X99710476Y-64967380D02*
X99520000Y-64967380D01*
X99424761Y-65015000D01*
X99377142Y-65062619D01*
X99281904Y-65205476D01*
X99234285Y-65395952D01*
X99234285Y-65776904D01*
X99281904Y-65872142D01*
X99329523Y-65919761D01*
X99424761Y-65967380D01*
X99615238Y-65967380D01*
X99710476Y-65919761D01*
X99758095Y-65872142D01*
X99805714Y-65776904D01*
X99805714Y-65538809D01*
X99758095Y-65443571D01*
X99710476Y-65395952D01*
X99615238Y-65348333D01*
X99424761Y-65348333D01*
X99329523Y-65395952D01*
X99281904Y-65443571D01*
X99234285Y-65538809D01*
%TO.C,U1*%
X52158095Y-84867380D02*
X52158095Y-85676904D01*
X52205714Y-85772142D01*
X52253333Y-85819761D01*
X52348571Y-85867380D01*
X52539047Y-85867380D01*
X52634285Y-85819761D01*
X52681904Y-85772142D01*
X52729523Y-85676904D01*
X52729523Y-84867380D01*
X53729523Y-85867380D02*
X53158095Y-85867380D01*
X53443809Y-85867380D02*
X53443809Y-84867380D01*
X53348571Y-85010238D01*
X53253333Y-85105476D01*
X53158095Y-85153095D01*
X83065714Y-89003380D02*
X82494285Y-89003380D01*
X82780000Y-89003380D02*
X82780000Y-88003380D01*
X82684761Y-88146238D01*
X82589523Y-88241476D01*
X82494285Y-88289095D01*
X64985952Y-83406238D02*
X64938333Y-83501476D01*
X64890714Y-83549095D01*
X64795476Y-83596714D01*
X64747857Y-83596714D01*
X64652619Y-83549095D01*
X64605000Y-83501476D01*
X64557380Y-83406238D01*
X64557380Y-83215761D01*
X64605000Y-83120523D01*
X64652619Y-83072904D01*
X64747857Y-83025285D01*
X64795476Y-83025285D01*
X64890714Y-83072904D01*
X64938333Y-83120523D01*
X64985952Y-83215761D01*
X64985952Y-83406238D01*
X65033571Y-83501476D01*
X65081190Y-83549095D01*
X65176428Y-83596714D01*
X65366904Y-83596714D01*
X65462142Y-83549095D01*
X65509761Y-83501476D01*
X65557380Y-83406238D01*
X65557380Y-83215761D01*
X65509761Y-83120523D01*
X65462142Y-83072904D01*
X65366904Y-83025285D01*
X65176428Y-83025285D01*
X65081190Y-83072904D01*
X65033571Y-83120523D01*
X64985952Y-83215761D01*
X65572380Y-101705476D02*
X65572380Y-102276904D01*
X65572380Y-101991190D02*
X64572380Y-101991190D01*
X64715238Y-102086428D01*
X64810476Y-102181666D01*
X64858095Y-102276904D01*
X64572380Y-100848333D02*
X64572380Y-101038809D01*
X64620000Y-101134047D01*
X64667619Y-101181666D01*
X64810476Y-101276904D01*
X65000952Y-101324523D01*
X65381904Y-101324523D01*
X65477142Y-101276904D01*
X65524761Y-101229285D01*
X65572380Y-101134047D01*
X65572380Y-100943571D01*
X65524761Y-100848333D01*
X65477142Y-100800714D01*
X65381904Y-100753095D01*
X65143809Y-100753095D01*
X65048571Y-100800714D01*
X65000952Y-100848333D01*
X64953333Y-100943571D01*
X64953333Y-101134047D01*
X65000952Y-101229285D01*
X65048571Y-101276904D01*
X65143809Y-101324523D01*
X83372380Y-102305476D02*
X83372380Y-102115000D01*
X83324761Y-102019761D01*
X83277142Y-101972142D01*
X83134285Y-101876904D01*
X82943809Y-101829285D01*
X82562857Y-101829285D01*
X82467619Y-101876904D01*
X82420000Y-101924523D01*
X82372380Y-102019761D01*
X82372380Y-102210238D01*
X82420000Y-102305476D01*
X82467619Y-102353095D01*
X82562857Y-102400714D01*
X82800952Y-102400714D01*
X82896190Y-102353095D01*
X82943809Y-102305476D01*
X82991428Y-102210238D01*
X82991428Y-102019761D01*
X82943809Y-101924523D01*
X82896190Y-101876904D01*
X82800952Y-101829285D01*
D14*
%TO.C,U5*%
X84225000Y-71275000D02*
X84225000Y-69625000D01*
X84225000Y-65975000D02*
X63785000Y-65975000D01*
X63785000Y-71275000D02*
X84225000Y-71275000D01*
X63785000Y-65975000D02*
X63785000Y-71275000D01*
X84225000Y-67625000D02*
X84225000Y-65975000D01*
X84225000Y-67625000D02*
G75*
G03*
X84225000Y-69625000I0J-1000000D01*
G01*
%TO.C,J3*%
X56195000Y-60085000D02*
X56195000Y-61415000D01*
X53535000Y-62685000D02*
X53535000Y-77985000D01*
X54865000Y-60085000D02*
X56195000Y-60085000D01*
X53535000Y-62685000D02*
X56195000Y-62685000D01*
X56195000Y-62685000D02*
X56195000Y-77985000D01*
X53535000Y-77985000D02*
X56195000Y-77985000D01*
%TO.C,C9*%
X62360000Y-58884000D02*
X63668000Y-58884000D01*
X59621000Y-58004000D02*
X60280000Y-58004000D01*
X60001000Y-57724000D02*
X60280000Y-57724000D01*
X59937000Y-57764000D02*
X60280000Y-57764000D01*
X62360000Y-59485000D02*
X63856000Y-59485000D01*
X59073000Y-58684000D02*
X60280000Y-58684000D01*
X58740000Y-59965000D02*
X63900000Y-59965000D01*
X62360000Y-58804000D02*
X63630000Y-58804000D01*
X62360000Y-58124000D02*
X63146000Y-58124000D01*
X62360000Y-58524000D02*
X63469000Y-58524000D01*
X62360000Y-59244000D02*
X63800000Y-59244000D01*
X62360000Y-58484000D02*
X63442000Y-58484000D01*
X59877000Y-57804000D02*
X60280000Y-57804000D01*
X58741000Y-59885000D02*
X63899000Y-59885000D01*
X59285000Y-58364000D02*
X60280000Y-58364000D01*
X60802000Y-57404000D02*
X61838000Y-57404000D01*
X58865000Y-59164000D02*
X60280000Y-59164000D01*
X59096000Y-58644000D02*
X60280000Y-58644000D01*
X62360000Y-58844000D02*
X63649000Y-58844000D01*
X62360000Y-58044000D02*
X63063000Y-58044000D01*
X62360000Y-58324000D02*
X63324000Y-58324000D01*
X62360000Y-57724000D02*
X62639000Y-57724000D01*
X62360000Y-57684000D02*
X62571000Y-57684000D01*
X62360000Y-58164000D02*
X63184000Y-58164000D01*
X62360000Y-59405000D02*
X63840000Y-59405000D01*
X58784000Y-59485000D02*
X60280000Y-59485000D01*
X58840000Y-59244000D02*
X60280000Y-59244000D01*
X58906000Y-59044000D02*
X60280000Y-59044000D01*
X62360000Y-59285000D02*
X63811000Y-59285000D01*
X60643000Y-57444000D02*
X61997000Y-57444000D01*
X59145000Y-58564000D02*
X60280000Y-58564000D01*
X62360000Y-59204000D02*
X63788000Y-59204000D01*
X59535000Y-58084000D02*
X60280000Y-58084000D01*
X62360000Y-57804000D02*
X62763000Y-57804000D01*
X59383000Y-58244000D02*
X60280000Y-58244000D01*
X59171000Y-58524000D02*
X60280000Y-58524000D01*
X58991000Y-58844000D02*
X60280000Y-58844000D01*
X62360000Y-59605000D02*
X63876000Y-59605000D01*
X62360000Y-57764000D02*
X62703000Y-57764000D01*
X58809000Y-59365000D02*
X60280000Y-59365000D01*
X60222000Y-57604000D02*
X62418000Y-57604000D01*
X59577000Y-58044000D02*
X60280000Y-58044000D01*
X62360000Y-59725000D02*
X63889000Y-59725000D01*
X62360000Y-59445000D02*
X63848000Y-59445000D01*
X58777000Y-59525000D02*
X60280000Y-59525000D01*
X58744000Y-59805000D02*
X63896000Y-59805000D01*
X59225000Y-58444000D02*
X60280000Y-58444000D01*
X62360000Y-58724000D02*
X63588000Y-58724000D01*
X58938000Y-58964000D02*
X60280000Y-58964000D01*
X62360000Y-59325000D02*
X63821000Y-59325000D01*
X58792000Y-59445000D02*
X60280000Y-59445000D01*
X58740000Y-59925000D02*
X63900000Y-59925000D01*
X58955000Y-58924000D02*
X60280000Y-58924000D01*
X62360000Y-57964000D02*
X62973000Y-57964000D01*
X58819000Y-59325000D02*
X60280000Y-59325000D01*
X58759000Y-59645000D02*
X60280000Y-59645000D01*
X59120000Y-58604000D02*
X60280000Y-58604000D01*
X62360000Y-58364000D02*
X63355000Y-58364000D01*
X59494000Y-58124000D02*
X60280000Y-58124000D01*
X62360000Y-59565000D02*
X63870000Y-59565000D01*
X58878000Y-59124000D02*
X60280000Y-59124000D01*
X58800000Y-59405000D02*
X60280000Y-59405000D01*
X58770000Y-59565000D02*
X60280000Y-59565000D01*
X62360000Y-58564000D02*
X63495000Y-58564000D01*
X62360000Y-59004000D02*
X63718000Y-59004000D01*
X58742000Y-59845000D02*
X63898000Y-59845000D01*
X58747000Y-59765000D02*
X63893000Y-59765000D01*
X58751000Y-59725000D02*
X60280000Y-59725000D01*
X62360000Y-59365000D02*
X63831000Y-59365000D01*
X62360000Y-58084000D02*
X63105000Y-58084000D01*
X59030000Y-58764000D02*
X60280000Y-58764000D01*
X59255000Y-58404000D02*
X60280000Y-58404000D01*
X62360000Y-58924000D02*
X63685000Y-58924000D01*
X59667000Y-57964000D02*
X60280000Y-57964000D01*
X58764000Y-59605000D02*
X60280000Y-59605000D01*
X62360000Y-58244000D02*
X63257000Y-58244000D01*
X62360000Y-59124000D02*
X63762000Y-59124000D01*
X62360000Y-58404000D02*
X63385000Y-58404000D01*
X62360000Y-58684000D02*
X63567000Y-58684000D01*
X62360000Y-58204000D02*
X63221000Y-58204000D01*
X62360000Y-59164000D02*
X63775000Y-59164000D01*
X62360000Y-58644000D02*
X63544000Y-58644000D01*
X58922000Y-59004000D02*
X60280000Y-59004000D01*
X59845000Y-62769775D02*
X59845000Y-62269775D01*
X62360000Y-57924000D02*
X62925000Y-57924000D01*
X60515000Y-57484000D02*
X62125000Y-57484000D01*
X60069000Y-57684000D02*
X60280000Y-57684000D01*
X62360000Y-59084000D02*
X63748000Y-59084000D01*
X62360000Y-59685000D02*
X63885000Y-59685000D01*
X61036000Y-57364000D02*
X61604000Y-57364000D01*
X58892000Y-59084000D02*
X60280000Y-59084000D01*
X60309000Y-57564000D02*
X62331000Y-57564000D01*
X62360000Y-58964000D02*
X63702000Y-58964000D01*
X59316000Y-58324000D02*
X60280000Y-58324000D01*
X59820000Y-57844000D02*
X60280000Y-57844000D01*
X60142000Y-57644000D02*
X62498000Y-57644000D01*
X59198000Y-58484000D02*
X60280000Y-58484000D01*
X62360000Y-58604000D02*
X63520000Y-58604000D01*
X62360000Y-59044000D02*
X63734000Y-59044000D01*
X59595000Y-62519775D02*
X60095000Y-62519775D01*
X58972000Y-58884000D02*
X60280000Y-58884000D01*
X59349000Y-58284000D02*
X60280000Y-58284000D01*
X58829000Y-59285000D02*
X60280000Y-59285000D01*
X62360000Y-58444000D02*
X63415000Y-58444000D01*
X62360000Y-59645000D02*
X63881000Y-59645000D01*
X62360000Y-58764000D02*
X63610000Y-58764000D01*
X59052000Y-58724000D02*
X60280000Y-58724000D01*
X59766000Y-57884000D02*
X60280000Y-57884000D01*
X59010000Y-58804000D02*
X60280000Y-58804000D01*
X62360000Y-57884000D02*
X62874000Y-57884000D01*
X60405000Y-57524000D02*
X62235000Y-57524000D01*
X62360000Y-58284000D02*
X63291000Y-58284000D01*
X58755000Y-59685000D02*
X60280000Y-59685000D01*
X62360000Y-57844000D02*
X62820000Y-57844000D01*
X59419000Y-58204000D02*
X60280000Y-58204000D01*
X62360000Y-59525000D02*
X63863000Y-59525000D01*
X59715000Y-57924000D02*
X60280000Y-57924000D01*
X58852000Y-59204000D02*
X60280000Y-59204000D01*
X62360000Y-58004000D02*
X63019000Y-58004000D01*
X59456000Y-58164000D02*
X60280000Y-58164000D01*
X63940000Y-59965000D02*
G75*
G03*
X63940000Y-59965000I-2620000J0D01*
G01*
%TO.C,C8*%
X87845000Y-73035000D02*
X89241000Y-73035000D01*
X84599000Y-66795000D02*
X85995000Y-66795000D01*
X84599000Y-73035000D02*
X84599000Y-66795000D01*
X87845000Y-66795000D02*
X89241000Y-66795000D01*
X84599000Y-73035000D02*
X85995000Y-73035000D01*
X89241000Y-73035000D02*
X89241000Y-66795000D01*
%TO.C,J1*%
X99250000Y-91710000D02*
X91570000Y-91710000D01*
X101850000Y-94370000D02*
X100520000Y-94370000D01*
X99250000Y-94370000D02*
X91570000Y-94370000D01*
X91570000Y-91710000D02*
X91570000Y-94370000D01*
X99250000Y-91710000D02*
X99250000Y-94370000D01*
X101850000Y-93040000D02*
X101850000Y-94370000D01*
%TO.C,J2*%
X108090000Y-81150000D02*
X108090000Y-83810000D01*
X115770000Y-83810000D02*
X108090000Y-83810000D01*
X118370000Y-82480000D02*
X118370000Y-83810000D01*
X115770000Y-81150000D02*
X115770000Y-83810000D01*
X118370000Y-83810000D02*
X117040000Y-83810000D01*
X115770000Y-81150000D02*
X108090000Y-81150000D01*
%TO.C,R3*%
X96020000Y-72295000D02*
X96970000Y-72295000D01*
X96970000Y-71375000D02*
X96970000Y-73215000D01*
X100810000Y-71375000D02*
X96970000Y-71375000D01*
X100810000Y-73215000D02*
X100810000Y-71375000D01*
X101760000Y-72295000D02*
X100810000Y-72295000D01*
X96970000Y-73215000D02*
X100810000Y-73215000D01*
%TO.C,U3*%
X104375000Y-88915000D02*
X103045000Y-88915000D01*
X104375000Y-87585000D02*
X104375000Y-88915000D01*
X89015000Y-86255000D02*
X89015000Y-88915000D01*
X101775000Y-86255000D02*
X89015000Y-86255000D01*
X101775000Y-88915000D02*
X89015000Y-88915000D01*
X101775000Y-86255000D02*
X101775000Y-88915000D01*
%TO.C,C6*%
X115340000Y-96336000D02*
X109100000Y-96336000D01*
X109100000Y-96336000D02*
X109100000Y-94940000D01*
X115340000Y-93090000D02*
X115340000Y-91694000D01*
X109100000Y-93090000D02*
X109100000Y-91694000D01*
X115340000Y-91694000D02*
X109100000Y-91694000D01*
X115340000Y-96336000D02*
X115340000Y-94940000D01*
%TO.C,D2*%
X82770000Y-81335000D02*
X82770000Y-83575000D01*
X86170000Y-83575000D02*
X86170000Y-81335000D01*
X86170000Y-81335000D02*
X81930000Y-81335000D01*
X86820000Y-82455000D02*
X86170000Y-82455000D01*
X81930000Y-83575000D02*
X86170000Y-83575000D01*
X82650000Y-81335000D02*
X82650000Y-83575000D01*
X82530000Y-81335000D02*
X82530000Y-83575000D01*
X81930000Y-81335000D02*
X81930000Y-83575000D01*
X81280000Y-82455000D02*
X81930000Y-82455000D01*
%TO.C,J4*%
X110750000Y-105445000D02*
X110750000Y-102785000D01*
X85230000Y-102785000D02*
X86560000Y-102785000D01*
X87830000Y-102785000D02*
X110750000Y-102785000D01*
X87830000Y-105445000D02*
X87830000Y-102785000D01*
X85230000Y-104115000D02*
X85230000Y-102785000D01*
X87830000Y-105445000D02*
X110750000Y-105445000D01*
%TO.C,U2*%
X117100000Y-77530000D02*
X68780000Y-77530000D01*
X117040000Y-59690000D02*
X117040000Y-62230000D01*
X68780000Y-74870000D02*
X117100000Y-74870000D01*
X65065000Y-57205000D02*
X118215000Y-57205000D01*
X118215000Y-57205000D02*
X118215000Y-79955000D01*
X66180000Y-77530000D02*
X66180000Y-76200000D01*
X118215000Y-79955000D02*
X65065000Y-79955000D01*
X65065000Y-79955000D02*
X65065000Y-57205000D01*
X117040000Y-62230000D02*
X66240000Y-62230000D01*
X68780000Y-77530000D02*
X68780000Y-74870000D01*
X67510000Y-77530000D02*
X66180000Y-77530000D01*
X117100000Y-74870000D02*
X117100000Y-77530000D01*
X66240000Y-59690000D02*
X117040000Y-59690000D01*
X66240000Y-62230000D02*
X66240000Y-59690000D01*
%TO.C,C2*%
X72940000Y-57036000D02*
X66700000Y-57036000D01*
X72940000Y-57036000D02*
X72940000Y-55640000D01*
X72940000Y-52394000D02*
X66700000Y-52394000D01*
X66700000Y-53790000D02*
X66700000Y-52394000D01*
X72940000Y-53790000D02*
X72940000Y-52394000D01*
X66700000Y-57036000D02*
X66700000Y-55640000D01*
%TO.C,C4*%
X73240000Y-88490000D02*
X73240000Y-87094000D01*
X67000000Y-88490000D02*
X67000000Y-87094000D01*
X67000000Y-91736000D02*
X67000000Y-90340000D01*
X73240000Y-87094000D02*
X67000000Y-87094000D01*
X73240000Y-91736000D02*
X73240000Y-90340000D01*
X73240000Y-91736000D02*
X67000000Y-91736000D01*
%TO.C,R8*%
X110140000Y-66660000D02*
X108300000Y-66660000D01*
X108300000Y-70500000D02*
X110140000Y-70500000D01*
X110140000Y-70500000D02*
X110140000Y-66660000D01*
X108300000Y-66660000D02*
X108300000Y-70500000D01*
X109220000Y-65710000D02*
X109220000Y-66660000D01*
X109220000Y-71450000D02*
X109220000Y-70500000D01*
%TO.C,D6*%
X92072335Y-53836392D02*
G75*
G03*
X88840000Y-53679484I-1672335J-1078609D01*
G01*
X89359039Y-55995000D02*
G75*
G03*
X91441130Y-55994837I1040961J1080000D01*
G01*
X88840000Y-56150516D02*
G75*
G03*
X92072335Y-55993608I1560000J1235517D01*
G01*
X91441130Y-53835163D02*
G75*
G03*
X89359039Y-53835000I-1041130J-1079837D01*
G01*
X88840000Y-55995000D02*
X88840000Y-56151000D01*
X88840000Y-53679000D02*
X88840000Y-53835000D01*
%TO.C,D8*%
X93920000Y-56150516D02*
G75*
G03*
X97152335Y-55993608I1560000J1235517D01*
G01*
X97152335Y-53836392D02*
G75*
G03*
X93920000Y-53679484I-1672335J-1078609D01*
G01*
X96521130Y-53835163D02*
G75*
G03*
X94439039Y-53835000I-1041130J-1079837D01*
G01*
X94439039Y-55995000D02*
G75*
G03*
X96521130Y-55994837I1040961J1080000D01*
G01*
X93920000Y-55995000D02*
X93920000Y-56151000D01*
X93920000Y-53679000D02*
X93920000Y-53835000D01*
%TO.C,D1*%
X86170000Y-78795000D02*
X81930000Y-78795000D01*
X86820000Y-79915000D02*
X86170000Y-79915000D01*
X82770000Y-78795000D02*
X82770000Y-81035000D01*
X81280000Y-79915000D02*
X81930000Y-79915000D01*
X86170000Y-81035000D02*
X86170000Y-78795000D01*
X81930000Y-78795000D02*
X81930000Y-81035000D01*
X82530000Y-78795000D02*
X82530000Y-81035000D01*
X82650000Y-78795000D02*
X82650000Y-81035000D01*
X81930000Y-81035000D02*
X86170000Y-81035000D01*
%TO.C,C1*%
X111400000Y-69394000D02*
X117640000Y-69394000D01*
X117640000Y-72640000D02*
X117640000Y-74036000D01*
X117640000Y-69394000D02*
X117640000Y-70790000D01*
X111400000Y-74036000D02*
X117640000Y-74036000D01*
X111400000Y-69394000D02*
X111400000Y-70790000D01*
X111400000Y-72640000D02*
X111400000Y-74036000D01*
%TO.C,C3*%
X117620000Y-67721000D02*
X117620000Y-66325000D01*
X111380000Y-64475000D02*
X111380000Y-63079000D01*
X117620000Y-63079000D02*
X111380000Y-63079000D01*
X117620000Y-64475000D02*
X117620000Y-63079000D01*
X117620000Y-67721000D02*
X111380000Y-67721000D01*
X111380000Y-67721000D02*
X111380000Y-66325000D01*
%TO.C,R7*%
X116290000Y-86215000D02*
X115340000Y-86215000D01*
X115340000Y-85295000D02*
X111500000Y-85295000D01*
X110550000Y-86215000D02*
X111500000Y-86215000D01*
X115340000Y-87135000D02*
X115340000Y-85295000D01*
X111500000Y-87135000D02*
X115340000Y-87135000D01*
X111500000Y-85295000D02*
X111500000Y-87135000D01*
%TO.C,D3*%
X94600000Y-85035000D02*
X98840000Y-85035000D01*
X95200000Y-82795000D02*
X95200000Y-85035000D01*
X93950000Y-83915000D02*
X94600000Y-83915000D01*
X95440000Y-82795000D02*
X95440000Y-85035000D01*
X95320000Y-82795000D02*
X95320000Y-85035000D01*
X98840000Y-85035000D02*
X98840000Y-82795000D01*
X94600000Y-82795000D02*
X94600000Y-85035000D01*
X99490000Y-83915000D02*
X98840000Y-83915000D01*
X98840000Y-82795000D02*
X94600000Y-82795000D01*
%TO.C,R1*%
X103750000Y-80835000D02*
X103750000Y-78995000D01*
X103750000Y-78995000D02*
X99910000Y-78995000D01*
X99910000Y-78995000D02*
X99910000Y-80835000D01*
X104700000Y-79915000D02*
X103750000Y-79915000D01*
X98960000Y-79915000D02*
X99910000Y-79915000D01*
X99910000Y-80835000D02*
X103750000Y-80835000D01*
%TO.C,D7*%
X101601130Y-53835163D02*
G75*
G03*
X99519039Y-53835000I-1041130J-1079837D01*
G01*
X102232335Y-53836392D02*
G75*
G03*
X99000000Y-53679484I-1672335J-1078609D01*
G01*
X99519039Y-55995000D02*
G75*
G03*
X101601130Y-55994837I1040961J1080000D01*
G01*
X99000000Y-56150516D02*
G75*
G03*
X102232335Y-55993608I1560000J1235517D01*
G01*
X99000000Y-53679000D02*
X99000000Y-53835000D01*
X99000000Y-55995000D02*
X99000000Y-56151000D01*
%TO.C,R4*%
X93560000Y-70675000D02*
X97400000Y-70675000D01*
X97400000Y-68835000D02*
X93560000Y-68835000D01*
X97400000Y-70675000D02*
X97400000Y-68835000D01*
X98350000Y-69755000D02*
X97400000Y-69755000D01*
X93560000Y-68835000D02*
X93560000Y-70675000D01*
X92610000Y-69755000D02*
X93560000Y-69755000D01*
%TO.C,U4*%
X114250000Y-96565000D02*
X110650000Y-96565000D01*
X110641556Y-96587317D02*
G75*
G03*
X111670000Y-100865000I1808445J-1827683D01*
G01*
X113270000Y-100865000D02*
G75*
G03*
X114261453Y-96572844I-819999J2450000D01*
G01*
%TO.C,C5*%
X75840000Y-79494000D02*
X69600000Y-79494000D01*
X75840000Y-80890000D02*
X75840000Y-79494000D01*
X75840000Y-84136000D02*
X69600000Y-84136000D01*
X75840000Y-84136000D02*
X75840000Y-82740000D01*
X69600000Y-84136000D02*
X69600000Y-82740000D01*
X69600000Y-80890000D02*
X69600000Y-79494000D01*
%TO.C,D5*%
X107312335Y-53836392D02*
G75*
G03*
X104080000Y-53679484I-1672335J-1078609D01*
G01*
X104599039Y-55995000D02*
G75*
G03*
X106681130Y-55994837I1040961J1080000D01*
G01*
X106681130Y-53835163D02*
G75*
G03*
X104599039Y-53835000I-1041130J-1079837D01*
G01*
X104080000Y-56150516D02*
G75*
G03*
X107312335Y-55993608I1560000J1235517D01*
G01*
X104080000Y-53679000D02*
X104080000Y-53835000D01*
X104080000Y-55995000D02*
X104080000Y-56151000D01*
%TO.C,R5*%
X99940000Y-68135000D02*
X99940000Y-66295000D01*
X96100000Y-68135000D02*
X99940000Y-68135000D01*
X99940000Y-66295000D02*
X96100000Y-66295000D01*
X95150000Y-67215000D02*
X96100000Y-67215000D01*
X100890000Y-67215000D02*
X99940000Y-67215000D01*
X96100000Y-66295000D02*
X96100000Y-68135000D01*
%TO.C,R2*%
X80390000Y-95415000D02*
X79440000Y-95415000D01*
X79440000Y-94495000D02*
X75600000Y-94495000D01*
X74650000Y-95415000D02*
X75600000Y-95415000D01*
X79440000Y-96335000D02*
X79440000Y-94495000D01*
X75600000Y-94495000D02*
X75600000Y-96335000D01*
X75600000Y-96335000D02*
X79440000Y-96335000D01*
%TO.C,D4*%
X83200000Y-91495000D02*
X83200000Y-93735000D01*
X86720000Y-93735000D02*
X86720000Y-91495000D01*
X82550000Y-92615000D02*
X83200000Y-92615000D01*
X87440000Y-93735000D02*
X87440000Y-91495000D01*
X83200000Y-93735000D02*
X87440000Y-93735000D01*
X86840000Y-93735000D02*
X86840000Y-91495000D01*
X88090000Y-92615000D02*
X87440000Y-92615000D01*
X86600000Y-93735000D02*
X86600000Y-91495000D01*
X87440000Y-91495000D02*
X83200000Y-91495000D01*
%TO.C,R6*%
X94860000Y-65595000D02*
X94860000Y-63755000D01*
X95810000Y-64675000D02*
X94860000Y-64675000D01*
X94860000Y-63755000D02*
X91020000Y-63755000D01*
X91020000Y-63755000D02*
X91020000Y-65595000D01*
X91020000Y-65595000D02*
X94860000Y-65595000D01*
X90070000Y-64675000D02*
X91020000Y-64675000D01*
%TO.C,U1*%
X51135000Y-96805000D02*
X38135000Y-96805000D01*
X51135000Y-84105000D02*
X84185000Y-84105000D01*
X38135000Y-102805000D02*
X38135000Y-96805000D01*
X51135000Y-105905000D02*
X51135000Y-84105000D01*
X51135000Y-102805000D02*
X38135000Y-102805000D01*
X84185000Y-84105000D02*
X84185000Y-105905000D01*
X84035000Y-105905000D02*
X51135000Y-105905000D01*
%TD*%
M02*
